<svg width="295" height="185" viewBox="0 0 295 185" fill="none" xmlns="http://www.w3.org/2000/svg">
<g filter="url(#filter0_dd_1476_21501)">
<rect x="4" width="287" height="175" rx="12" fill="url(#paint0_linear_1476_21501)"/>
<rect width="287" height="52" transform="translate(4 123)" fill="black" fill-opacity="0.1"/>
<path d="M33.42 153.78V153.06H27.156V151.8H33.024V149.268H26.208V149.988H32.112V151.14H26.244V153.78H33.42ZM29.82 143.928H25.032V144.696H28.776C28.428 146.412 26.892 147.804 24.588 148.38L25.044 149.124C27.66 148.368 29.604 146.688 29.82 143.928ZM29.928 145.62H32.112V146.832H29.796V147.564H32.112V148.692H33.024V143.352H32.112V144.9H29.928V145.62ZM39.8908 150.696C38.5948 149.856 37.6108 148.56 37.6108 146.496V145.344H39.6268V144.588H34.6228V145.344H36.7108V146.52C36.7108 148.56 35.6068 150.216 34.3708 151.008L34.9828 151.644C36.0028 150.924 36.9508 149.676 37.1668 148.512C37.4668 149.616 38.5708 150.84 39.3148 151.368L39.8908 150.696ZM41.3068 153.312V143.604H40.4068V147.204H38.7268V147.96H40.4068V153.312H41.3068ZM43.3828 153.84V143.352H42.4828V153.84H43.3828ZM49.7936 153.852V150.048H54.0896V149.28H44.6216V150.048H48.8816V153.852H49.7936ZM53.7056 147.384C51.8576 147.156 49.8416 145.812 49.8416 144.384V143.712H48.8816V144.384C48.8816 145.812 47.0336 147.144 45.0176 147.408L45.4616 148.188C47.0576 147.876 48.8456 146.856 49.3496 145.632C49.9856 146.856 51.7016 147.84 53.2736 148.164L53.7056 147.384ZM64.3524 147.156V146.388H62.7564V143.352H61.8444V150.96H62.7564V147.156H64.3524ZM63.1644 153.48V152.724H57.1644V150.276H56.2404V153.48H63.1644ZM55.9764 148.5V145.056H59.8764V144.288H55.0644V149.256H55.9164C57.7284 149.256 59.7204 149.1 60.8844 148.896L60.8004 148.152C59.7924 148.356 57.9444 148.5 56.4924 148.5H55.9764Z" fill="white" fill-opacity="0.6"/>
<path d="M210.802 145.72V144.824H208.94V141.744H207.876V148.828H208.94V145.72H210.802ZM208.94 153.812V149.472H201.254V153.812H208.94ZM207.876 152.93H202.318V150.354H207.876V152.93ZM206.42 147.344C205.034 146.84 203.424 145.342 203.424 143.396V142.318H202.346V143.438C202.346 145.384 201.016 146.924 199.266 147.736L199.924 148.548C201.352 147.82 202.542 146.602 202.92 145.3C203.41 146.532 204.614 147.61 205.79 148.17L206.42 147.344ZM220.277 145.44V149.346H221.341V141.744H220.277V144.558H217.645V145.44H220.277ZM221.467 151.656C221.467 150.228 219.997 149.346 217.365 149.346C214.747 149.346 213.277 150.228 213.277 151.656C213.277 153.084 214.747 153.966 217.365 153.966C219.997 153.966 221.467 153.084 221.467 151.656ZM217.365 150.214C219.269 150.214 220.389 150.746 220.389 151.656C220.389 152.58 219.269 153.098 217.365 153.098C215.489 153.098 214.355 152.58 214.355 151.656C214.355 150.746 215.489 150.214 217.365 150.214ZM218.303 147.568C216.917 147.064 215.307 145.594 215.307 143.634V142.444H214.229V143.662C214.229 145.608 212.955 147.176 211.191 147.988L211.849 148.814C213.263 148.1 214.425 146.812 214.803 145.552C215.279 146.77 216.497 147.834 217.673 148.394L218.303 147.568ZM232.819 146.672V142.038H231.741V143.522H225.623V142.038H224.559V146.672H228.129V147.988H223.159V148.87H234.205V147.988H229.193V146.672H232.819ZM224.363 150.088V150.97H231.783V154.064H232.847V150.088H224.363ZM231.741 145.79H225.623V144.404H231.741V145.79ZM242.532 150.27C240.852 149.36 239.298 147.386 239.298 145.104V143.858H242.154V142.976H235.336V143.858H238.192V145.118C238.192 147.428 236.722 149.514 234.93 150.564L235.588 151.348C237.002 150.438 238.346 148.87 238.752 147.344C239.172 148.786 240.726 150.326 241.874 151.068L242.532 150.27ZM243.946 141.744V153.98H245.01V141.744H243.946ZM255.717 147.204V153.98H256.781V141.744H255.717V146.308H253.449V147.204H255.717ZM252.889 150.816V143.004H247.233V150.816H252.889ZM251.825 149.934H248.311V143.886H251.825V149.934ZM268.51 141.744H267.46V153.98H268.51V141.744ZM266.214 149.486C264.758 149.808 261.93 150.032 260.362 150.032V143.018H259.284V150.97H259.83C261.706 150.97 264.898 150.732 266.312 150.41L266.214 149.486Z" fill="white"/>
<path d="M34.276 99.814V93.514H32.848V95.53H27.262V93.528H25.834V99.814H29.32V102.376H24.42V103.524H35.69V102.376H30.748V99.814H34.276ZM32.848 98.666H27.262V96.664H32.848V98.666ZM46.2293 95.81C46.2293 94.2 44.5493 93.094 41.8473 93.094C39.1593 93.094 37.4653 94.2 37.4653 95.81C37.4653 97.462 39.1593 98.554 41.8473 98.554C44.5493 98.554 46.2293 97.462 46.2293 95.81ZM40.4193 105.092V100.85H43.2753V105.092H44.7033V100.85H47.5033V99.702H36.2333V100.85H38.9913V105.092H40.4193ZM44.7453 95.81C44.7453 96.72 43.6393 97.364 41.8473 97.364C40.0553 97.364 38.9493 96.72 38.9493 95.81C38.9493 94.914 40.0553 94.256 41.8473 94.256C43.6393 94.256 44.7453 94.914 44.7453 95.81ZM57.8746 104.952V100.374H49.4886V104.952H57.8746ZM57.8326 93.164H49.4886V94.312H56.4046C56.3906 95.292 56.2646 96.804 56.0686 97.658H48.0466V98.82H59.3166V97.658H57.4406C57.7066 96.44 57.8326 94.83 57.8326 93.164ZM56.4466 103.804H50.9166V101.494H56.4466V103.804ZM65.6698 96.202C65.6698 94.648 64.6338 93.346 62.8418 93.346C61.0638 93.346 60.0138 94.648 60.0138 96.202C60.0138 97.784 61.0638 99.1 62.8558 99.1C64.6478 99.1 65.6698 97.784 65.6698 96.202ZM70.3738 99.968V92.632H69.0018V95.67H67.8818V92.856H66.5378V99.828H67.8818V96.86H69.0018V99.968H70.3738ZM61.8758 100.584V101.718H68.9598V105.12H70.3738V100.584H61.8758ZM64.3258 96.216C64.3258 97.21 63.7378 97.952 62.8418 97.952C61.9598 97.952 61.3718 97.21 61.3718 96.202C61.3718 95.236 61.9598 94.494 62.8418 94.494C63.7378 94.494 64.3258 95.236 64.3258 96.216Z" fill="white" fill-opacity="0.8"/>
<path d="M160.96 105.18H169.84V103H164.6L166.02 101.56C167.42 100.1 169.8 97.66 169.8 95.18C169.8 92.66 168.24 91.24 165.08 91.24C163.48 91.24 162.08 91.68 161.12 92.22L161.48 94.24C162.24 93.84 163.38 93.42 164.24 93.42C165.94 93.42 166.86 93.96 166.86 95.58C166.86 97.2 165.22 99 163.34 101L160.96 103.54V105.18ZM170.583 108H172.663L174.143 103.84H171.403L170.583 108ZM180.24 105.42C183.18 105.42 185.76 103.62 185.76 98.68V97.98C185.76 93.1 183.22 91.24 180.28 91.24C177.4 91.24 174.74 93.06 174.74 98.04V98.76C174.74 103.5 177.16 105.42 180.24 105.42ZM180.24 103.3C178.5 103.3 177.72 101.8 177.72 98.7V97.84C177.72 94.72 178.54 93.36 180.26 93.36C181.96 93.36 182.82 94.8 182.82 97.98V98.84C182.82 102.04 181.98 103.3 180.24 103.3ZM192.686 105.42C195.626 105.42 198.206 103.62 198.206 98.68V97.98C198.206 93.1 195.666 91.24 192.726 91.24C189.846 91.24 187.186 93.06 187.186 98.04V98.76C187.186 103.5 189.606 105.42 192.686 105.42ZM192.686 103.3C190.946 103.3 190.166 101.8 190.166 98.7V97.84C190.166 94.72 190.986 93.36 192.706 93.36C194.406 93.36 195.266 94.8 195.266 97.98V98.84C195.266 102.04 194.426 103.3 192.686 103.3ZM205.133 105.42C208.073 105.42 210.653 103.62 210.653 98.68V97.98C210.653 93.1 208.113 91.24 205.173 91.24C202.293 91.24 199.633 93.06 199.633 98.04V98.76C199.633 103.5 202.053 105.42 205.133 105.42ZM205.133 103.3C203.393 103.3 202.613 101.8 202.613 98.7V97.84C202.613 94.72 203.433 93.36 205.153 93.36C206.853 93.36 207.713 94.8 207.713 97.98V98.84C207.713 102.04 206.873 103.3 205.133 103.3ZM210.878 108H212.958L214.438 103.84H211.698L210.878 108ZM220.535 105.42C223.475 105.42 226.055 103.62 226.055 98.68V97.98C226.055 93.1 223.515 91.24 220.575 91.24C217.695 91.24 215.035 93.06 215.035 98.04V98.76C215.035 103.5 217.455 105.42 220.535 105.42ZM220.535 103.3C218.795 103.3 218.015 101.8 218.015 98.7V97.84C218.015 94.72 218.835 93.36 220.555 93.36C222.255 93.36 223.115 94.8 223.115 97.98V98.84C223.115 102.04 222.275 103.3 220.535 103.3ZM232.982 105.42C235.922 105.42 238.502 103.62 238.502 98.68V97.98C238.502 93.1 235.962 91.24 233.022 91.24C230.142 91.24 227.482 93.06 227.482 98.04V98.76C227.482 103.5 229.902 105.42 232.982 105.42ZM232.982 103.3C231.242 103.3 230.462 101.8 230.462 98.7V97.84C230.462 94.72 231.282 93.36 233.002 93.36C234.702 93.36 235.562 94.8 235.562 97.98V98.84C235.562 102.04 234.722 103.3 232.982 103.3ZM245.429 105.42C248.369 105.42 250.949 103.62 250.949 98.68V97.98C250.949 93.1 248.409 91.24 245.469 91.24C242.589 91.24 239.929 93.06 239.929 98.04V98.76C239.929 103.5 242.349 105.42 245.429 105.42ZM245.429 103.3C243.689 103.3 242.909 101.8 242.909 98.7V97.84C242.909 94.72 243.729 93.36 245.449 93.36C247.149 93.36 248.009 94.8 248.009 97.98V98.84C248.009 102.04 247.169 103.3 245.429 103.3Z" fill="white"/>
<path d="M263.54 93.48C263.54 91.54 261.7 90.16 259.12 90.16C256.56 90.16 254.66 91.54 254.66 93.44C254.66 95.44 256.56 96.72 259.12 96.72C261.7 96.72 263.54 95.42 263.54 93.48ZM262.98 101.6H266.46V103.5H268.5V89.76H266.46V100.1H262.98V101.6ZM268.82 107.12V105.48H257.96V101.88H255.92V107.12H268.82ZM260.7 102.6V99.24C262.24 99.14 263.8 99 265.32 98.82L265.18 97.3C263.6 97.48 261.72 97.62 259.32 97.7C257.36 97.78 255.42 97.8 253.4 97.8L253.68 99.5C255.34 99.48 256.98 99.44 258.64 99.36V102.6H260.7ZM261.52 93.48C261.52 94.4 260.6 95.16 259.12 95.16C257.64 95.16 256.7 94.4 256.7 93.48C256.7 92.54 257.64 91.74 259.12 91.74C260.6 91.74 261.52 92.54 261.52 93.48Z" fill="white"/>
<path d="M24 24.3214C24 23.0393 25.0653 22 26.3793 22H40.6554C41.9694 22 43.0347 23.0393 43.0347 24.3214V24.5071L24 24.5071V24.3214Z" fill="white"/>
<path fill-rule="evenodd" clip-rule="evenodd" d="M24 25.7143L43.0347 25.7143V32.6786C43.0347 33.9607 41.9694 35 40.6554 35H26.3793C25.0653 35 24 33.9607 24 32.6786V25.7143ZM39.7036 32.2143C40.4921 32.2143 41.1312 31.5907 41.1312 30.8214C41.1312 30.0522 40.4921 29.4286 39.7036 29.4286C38.9152 29.4286 38.276 30.0522 38.276 30.8214C38.276 31.5907 38.9152 32.2143 39.7036 32.2143Z" fill="white"/>
<path d="M58.0131 24.8479C58.3101 25.4385 58.4585 26.0959 58.4585 26.8202C58.4585 27.5445 58.3101 28.2019 58.0131 28.7925C57.7162 29.3719 57.3336 29.8344 56.8653 30.1798C55.9174 30.8929 54.9352 31.2495 53.9188 31.2495H51.7773V33.1382C51.7773 33.3945 51.7659 33.5895 51.7431 33.7232C51.7317 33.8458 51.6803 33.9906 51.5889 34.1578C51.429 34.4586 50.9836 34.6091 50.2527 34.6091C49.4532 34.6091 48.985 34.4029 48.8479 33.9906C48.7794 33.8012 48.7451 33.5115 48.7451 33.1215V23.8451C48.7451 23.5888 48.7508 23.3994 48.7622 23.2768C48.7851 23.1431 48.8422 22.9926 48.9336 22.8255C49.0935 22.5246 49.5389 22.3742 50.2698 22.3742H53.9359C54.9409 22.3742 55.9174 22.7308 56.8653 23.4439C57.3336 23.7894 57.7162 24.2574 58.0131 24.8479ZM53.9359 28.2911C54.2785 28.2911 54.6154 28.1685 54.9466 27.9234C55.2778 27.6782 55.4434 27.3105 55.4434 26.8202C55.4434 26.3299 55.2778 25.9622 54.9466 25.7171C54.6154 25.4608 54.2728 25.3326 53.9188 25.3326H51.7773V28.2911H53.9359Z" fill="white"/>
<path d="M65.3937 23.2434L70.0192 32.5699C70.2133 32.9488 70.3104 33.2329 70.3104 33.4224C70.3104 33.8235 69.9792 34.1856 69.3168 34.5088C68.9285 34.6982 68.6201 34.7929 68.3917 34.7929C68.1747 34.7929 67.992 34.7428 67.8435 34.6425C67.7065 34.5422 67.6037 34.4364 67.5351 34.3249C67.478 34.2135 67.3924 34.0464 67.2782 33.8235L66.3873 32.0184H61.642L60.7512 33.8235C60.637 34.0464 60.5456 34.2079 60.4771 34.3082C60.42 34.4085 60.3172 34.5144 60.1687 34.6258C60.0317 34.7261 59.8489 34.7762 59.6205 34.7762C59.4035 34.7762 59.1009 34.6815 58.7126 34.4921C58.0501 34.1801 57.7189 33.8235 57.7189 33.4224C57.7189 33.2329 57.816 32.9488 58.0102 32.5699L62.6356 23.2266C62.7612 22.9704 62.9497 22.7642 63.2009 22.6082C63.4636 22.4522 63.7377 22.3742 64.0232 22.3742C64.64 22.3742 65.0968 22.6639 65.3937 23.2434ZM64.0061 27.2548L62.8754 29.5446H65.1539L64.0061 27.2548Z" fill="white"/>
<path d="M78.6406 22.6082C79.2002 22.9871 79.48 23.3548 79.48 23.7114C79.48 23.9231 79.3487 24.2184 79.086 24.5972L75.3857 29.9959V33.1884C75.3857 33.4446 75.3742 33.6396 75.3514 33.7734C75.34 33.8959 75.2886 34.0408 75.1972 34.2079C75.1059 34.3751 74.9517 34.4921 74.7347 34.5589C74.5177 34.6258 74.2264 34.6592 73.861 34.6592C73.4955 34.6592 73.2043 34.6258 72.9873 34.5589C72.7703 34.4921 72.6161 34.3751 72.5247 34.2079C72.4334 34.0296 72.3763 33.8792 72.3534 33.7566C72.342 33.6229 72.3363 33.4224 72.3363 33.1549V29.9959L68.636 24.5972C68.3733 24.2184 68.2419 23.9231 68.2419 23.7114C68.2419 23.3548 68.4932 23.0149 68.9957 22.6918C69.4982 22.3575 69.858 22.1904 70.075 22.1904C70.292 22.1904 70.4633 22.2349 70.5889 22.3241C70.7831 22.4466 70.9886 22.6751 71.2056 23.0094L73.861 27.1545L76.5163 23.0094C76.7333 22.6751 76.9218 22.4578 77.0817 22.3575C77.2415 22.2461 77.4243 22.1904 77.6299 22.1904C77.8468 22.1904 78.1838 22.3296 78.6406 22.6082Z" fill="white"/>
<path d="M90.0251 32.5532C90.1964 32.9544 90.2821 33.2441 90.2821 33.4224C90.2821 33.8458 89.928 34.2024 89.2199 34.4921C88.8545 34.6481 88.5575 34.7261 88.3291 34.7261C88.1121 34.7261 87.9294 34.6759 87.7809 34.5756C87.6439 34.4642 87.5411 34.3528 87.4725 34.2414C87.3583 34.0296 86.9129 33.0212 86.1363 31.2161L85.6052 31.2495H83.4467V33.1382C83.4467 33.3945 83.4353 33.5895 83.4124 33.7232C83.401 33.8458 83.3496 33.9906 83.2583 34.1578C83.0984 34.4586 82.653 34.6091 81.922 34.6091C81.1226 34.6091 80.6543 34.4029 80.5173 33.9906C80.4487 33.8012 80.4145 33.5115 80.4145 33.1215V23.8451C80.4145 23.5888 80.4202 23.3994 80.4316 23.2768C80.4544 23.1431 80.5116 22.9926 80.6029 22.8255C80.7628 22.5246 81.2082 22.3742 81.9392 22.3742H85.6395C86.6445 22.3742 87.621 22.7308 88.5689 23.4439C89.0258 23.7894 89.4027 24.2574 89.6996 24.8479C89.9965 25.4385 90.145 26.0959 90.145 26.8202C90.145 28.0794 89.7167 29.1156 88.8602 29.9291C89.1114 30.5196 89.4997 31.3944 90.0251 32.5532ZM83.4467 28.2911H85.6395C85.9707 28.2911 86.3019 28.1685 86.6331 27.9234C86.9643 27.6782 87.1299 27.3105 87.1299 26.8202C87.1299 26.3299 86.9643 25.9622 86.6331 25.7171C86.3019 25.4608 85.9593 25.3326 85.6052 25.3326H83.4467V28.2911Z" fill="white"/>
<path d="M96.9477 22.2238C98.638 22.2238 100.106 22.8199 101.35 24.0122C102.595 25.2045 103.218 26.6865 103.218 28.4582C103.218 30.2188 102.624 31.7231 101.436 32.9711C100.248 34.2079 98.7865 34.8264 97.0505 34.8264C95.3146 34.8264 93.8356 34.2135 92.6135 32.9878C91.4029 31.7621 90.7976 30.3024 90.7976 28.6086C90.7976 27.6838 90.9689 26.8202 91.3116 26.0179C91.6542 25.2045 92.111 24.5248 92.682 23.9788C93.2531 23.4328 93.9098 23.0038 94.6521 22.6918C95.3945 22.3798 96.1597 22.2238 96.9477 22.2238ZM93.8298 28.5251C93.8298 29.5168 94.1553 30.3246 94.8063 30.9486C95.4687 31.5615 96.2054 31.8679 97.0163 31.8679C97.8271 31.8679 98.5581 31.5671 99.2091 30.9654C99.86 30.3636 100.186 29.5558 100.186 28.5418C100.186 27.5278 99.8543 26.7144 99.1919 26.1015C98.5409 25.4886 97.81 25.1822 96.9991 25.1822C96.1882 25.1822 95.4573 25.4942 94.8063 26.1182C94.1553 26.7311 93.8298 27.5334 93.8298 28.5251Z" fill="white"/>
<path d="M109.717 28.4749C111.465 30.1129 112.704 31.3442 113.435 32.1688C113.812 32.5811 114 32.9321 114 33.2218C114 33.5004 113.772 33.8346 113.315 34.2246C112.858 34.6035 112.481 34.7929 112.184 34.7929C111.899 34.7929 111.55 34.5589 111.139 34.0909L107.37 29.8956V33.1549C107.37 33.4224 107.359 33.6174 107.336 33.7399C107.325 33.8625 107.273 34.0074 107.182 34.1745C107.022 34.4754 106.576 34.6258 105.846 34.6258C105.046 34.6258 104.578 34.4141 104.441 33.9906C104.372 33.8124 104.338 33.5282 104.338 33.1382V23.8451C104.338 23.5888 104.344 23.3994 104.355 23.2768C104.378 23.1431 104.435 22.9926 104.526 22.8255C104.686 22.5246 105.132 22.3742 105.863 22.3742C106.662 22.3742 107.136 22.5804 107.285 22.9926C107.342 23.1821 107.37 23.4718 107.37 23.8618V27.0542C108.923 25.3494 110.18 23.9509 111.139 22.8589C111.539 22.4021 111.887 22.1736 112.184 22.1736C112.481 22.1736 112.858 22.3686 113.315 22.7586C113.772 23.1375 114 23.4718 114 23.7615C114 24.0401 113.829 24.3744 113.486 24.7644C112.824 25.5109 111.796 26.5361 110.402 27.8398L109.717 28.4749Z" fill="white"/>
</g>
<defs>
<filter id="filter0_dd_1476_21501" x="0" y="0" width="295" height="185" filterUnits="userSpaceOnUse" color-interpolation-filters="sRGB">
<feFlood flood-opacity="0" result="BackgroundImageFix"/>
<feColorMatrix in="SourceAlpha" type="matrix" values="0 0 0 0 0 0 0 0 0 0 0 0 0 0 0 0 0 0 127 0" result="hardAlpha"/>
<feOffset dy="6"/>
<feGaussianBlur stdDeviation="2"/>
<feComposite in2="hardAlpha" operator="out"/>
<feColorMatrix type="matrix" values="0 0 0 0 0.0862745 0 0 0 0 0.360784 0 0 0 0 0.866667 0 0 0 0.15 0"/>
<feBlend mode="normal" in2="BackgroundImageFix" result="effect1_dropShadow_1476_21501"/>
<feColorMatrix in="SourceAlpha" type="matrix" values="0 0 0 0 0 0 0 0 0 0 0 0 0 0 0 0 0 0 127 0" result="hardAlpha"/>
<feOffset dy="2"/>
<feGaussianBlur stdDeviation="1"/>
<feComposite in2="hardAlpha" operator="out"/>
<feColorMatrix type="matrix" values="0 0 0 0 0.0862745 0 0 0 0 0.360784 0 0 0 0 0.866667 0 0 0 0.25 0"/>
<feBlend mode="normal" in2="effect1_dropShadow_1476_21501" result="effect2_dropShadow_1476_21501"/>
<feBlend mode="normal" in="SourceGraphic" in2="effect2_dropShadow_1476_21501" result="shape"/>
</filter>
<linearGradient id="paint0_linear_1476_21501" x1="4" y1="87.5" x2="291" y2="87.5" gradientUnits="userSpaceOnUse">
<stop stop-color="#2F4786"/>
<stop offset="1" stop-color="#1B2C59"/>
</linearGradient>
</defs>
</svg>
