<?xml version="1.0" encoding="utf-8"?>
<!-- Generator: Adobe Illustrator 26.0.2, SVG Export Plug-In . SVG Version: 6.00 Build 0)  -->
<svg version="1.1" id="Layer_1" xmlns="http://www.w3.org/2000/svg" xmlns:xlink="http://www.w3.org/1999/xlink" x="0px" y="0px"
	 viewBox="0 0 375 1012" style="enable-background:new 0 0 375 1012;" xml:space="preserve">
<style type="text/css">
	.st0{opacity:0.8;fill-rule:evenodd;clip-rule:evenodd;fill:#10192D;enable-background:new    ;}
	.st1{fill:none;stroke:#FFFFFF;stroke-width:3;}
</style>
<path class="st0" d="M375,0.5H0v1012h375V0.5z M53.7,347.2c-1.7,3.4-1.7,7.9-1.7,16.9v285.8c0,9,0,13.4,1.7,16.9c1.5,3,4,5.5,7,7
	c3.4,1.7,7.9,1.7,16.9,1.7h219.8c9,0,13.4,0,16.9-1.7c3-1.5,5.5-4,7-7c1.7-3.4,1.7-7.9,1.7-16.9V364.1c0-9,0-13.4-1.7-16.9
	c-1.5-3-4-5.5-7-7c-3.4-1.7-7.9-1.7-16.9-1.7H77.6c-9,0-13.4,0-16.9,1.7C57.7,341.8,55.3,344.2,53.7,347.2z"/>
<path class="st1" d="M85.9,338.5h-8.3c-9,0-13.4,0-16.9,1.7c-3,1.5-5.5,4-7,7c-1.7,3.4-1.7,7.9-1.7,16.9v16.5 M153.6,338.5h33.9
	h33.9 M289.1,338.5h8.3c9,0,13.4,0,16.9,1.7c3,1.5,5.5,4,7,7c1.7,3.4,1.7,7.9,1.7,16.9v16.5 M323,464.9V507v42.1 M323,633.4v16.5
	c0,9,0,13.4-1.7,16.9c-1.5,3-4,5.5-7,7c-3.4,1.7-7.9,1.7-16.9,1.7h-8.3 M221.4,675.5h-33.9h-33.9 M85.9,675.5h-8.3
	c-9,0-13.4,0-16.9-1.7c-3-1.5-5.5-4-7-7c-1.7-3.4-1.7-7.9-1.7-16.9v-16.5 M52,464.9V507v42.1"/>
</svg>
