<svg width="11" height="16" viewBox="0 0 11 16" fill="none" xmlns="http://www.w3.org/2000/svg">
<path d="M5.35355 11.3536C5.15829 11.5488 4.84171 11.5488 4.64645 11.3536C4.45118 11.1583 4.45118 10.8417 4.64645 10.6464L5.35355 11.3536ZM8 8L8.35355 7.64645C8.44732 7.74021 8.5 7.86739 8.5 8C8.5 8.13261 8.44732 8.25979 8.35355 8.35355L8 8ZM4.64645 5.35355C4.45118 5.15829 4.45118 4.84171 4.64645 4.64645C4.84171 4.45118 5.15829 4.45118 5.35355 4.64645L4.64645 5.35355ZM4.64645 10.6464L7.64645 7.64645L8.35355 8.35355L5.35355 11.3536L4.64645 10.6464ZM7.64645 8.35355L4.64645 5.35355L5.35355 4.64645L8.35355 7.64645L7.64645 8.35355Z" fill="#37D243"/>
</svg>
