<svg width="21" height="20" viewBox="0 0 21 20" fill="none" xmlns="http://www.w3.org/2000/svg">
<path d="M12.4583 1.66669H8.54167C7.67501 1.66669 6.96667 2.36669 6.96667 3.23335V4.01669C6.96667 4.88335 7.66667 5.58335 8.53334 5.58335H12.4583C13.325 5.58335 14.025 4.88335 14.025 4.01669V3.23335C14.0333 2.36669 13.325 1.66669 12.4583 1.66669Z" fill="white"/>
<path d="M14.8666 4.01665C14.8666 5.34165 13.7833 6.42498 12.4583 6.42498H8.54164C7.21664 6.42498 6.13331 5.34165 6.13331 4.01665C6.13331 3.54998 5.6333 3.25832 5.21664 3.47498C4.04164 4.09998 3.24164 5.34165 3.24164 6.76665V14.6083C3.24164 16.6583 4.91664 18.3333 6.96664 18.3333H14.0333C16.0833 18.3333 17.7583 16.6583 17.7583 14.6083V6.76665C17.7583 5.34165 16.9583 4.09998 15.7833 3.47498C15.3666 3.25832 14.8666 3.54998 14.8666 4.01665ZM10.8166 14.125H7.16664C6.82497 14.125 6.54164 13.8417 6.54164 13.5C6.54164 13.1583 6.82497 12.875 7.16664 12.875H10.8166C11.1583 12.875 11.4416 13.1583 11.4416 13.5C11.4416 13.8417 11.1583 14.125 10.8166 14.125ZM13 10.7916H7.16664C6.82497 10.7916 6.54164 10.5083 6.54164 10.1666C6.54164 9.82498 6.82497 9.54165 7.16664 9.54165H13C13.3416 9.54165 13.625 9.82498 13.625 10.1666C13.625 10.5083 13.3416 10.7916 13 10.7916Z" fill="white"/>
</svg>
