<svg width="36" height="36" viewBox="0 0 36 36" fill="none" xmlns="http://www.w3.org/2000/svg">
<path d="M18.0167 25.1081C16.0751 25.1081 14.1334 24.7998 12.2917 24.1831C11.5917 23.9414 11.0584 23.4498 10.8251 22.8081C10.5834 22.1664 10.6667 21.4581 11.0501 20.8248L12.0084 19.2331C12.2084 18.8998 12.3917 18.2331 12.3917 17.8414V15.4331C12.3917 12.3331 14.9167 9.80811 18.0167 9.80811C21.1167 9.80811 23.6417 12.3331 23.6417 15.4331V17.8414C23.6417 18.2248 23.8251 18.8998 24.0251 19.2414L24.9751 20.8248C25.3334 21.4248 25.4001 22.1498 25.1584 22.8081C24.9167 23.4664 24.3917 23.9664 23.7334 24.1831C21.9001 24.7998 19.9584 25.1081 18.0167 25.1081ZM18.0167 11.0581C15.6084 11.0581 13.6417 13.0164 13.6417 15.4331V17.8414C13.6417 18.4498 13.3917 19.3498 13.0834 19.8748L12.1251 21.4664C11.9417 21.7748 11.8917 22.0998 12.0001 22.3748C12.1001 22.6581 12.3501 22.8748 12.6917 22.9914C16.1751 24.1581 19.8667 24.1581 23.3501 22.9914C23.6501 22.8914 23.8834 22.6664 23.9917 22.3664C24.1001 22.0664 24.0751 21.7414 23.9084 21.4664L22.9501 19.8748C22.6334 19.3331 22.3917 18.4414 22.3917 17.8331V15.4331C22.3917 13.0164 20.4334 11.0581 18.0167 11.0581Z" fill="#111111"/>
<path d="M19.5666 11.2834C19.5083 11.2834 19.4499 11.2751 19.3916 11.2584C19.1499 11.1917 18.9166 11.1417 18.6916 11.1084C17.9833 11.0167 17.2999 11.0667 16.6583 11.2584C16.4249 11.3334 16.1749 11.2584 16.0166 11.0834C15.8583 10.9084 15.8083 10.6584 15.8999 10.4334C16.2416 9.5584 17.0749 8.9834 18.0249 8.9834C18.9749 8.9834 19.8083 9.55007 20.1499 10.4334C20.2333 10.6584 20.1916 10.9084 20.0333 11.0834C19.9083 11.2167 19.7333 11.2834 19.5666 11.2834Z" fill="#111111"/>
<path d="M18.0166 27.0083C17.1916 27.0083 16.3916 26.675 15.8083 26.0916C15.2249 25.5083 14.8916 24.7083 14.8916 23.8833H16.1416C16.1416 24.375 16.3416 24.8583 16.6916 25.2083C17.0416 25.5583 17.5249 25.7583 18.0166 25.7583C19.0499 25.7583 19.8916 24.9166 19.8916 23.8833H21.1416C21.1416 25.6083 19.7416 27.0083 18.0166 27.0083Z" fill="#111111"/>
</svg>
