<svg width="15" height="14" viewBox="0 0 15 14" fill="none" xmlns="http://www.w3.org/2000/svg">
<path d="M8.85355 10.3536C8.65829 10.5488 8.34171 10.5488 8.14645 10.3536C7.95118 10.1583 7.95118 9.84171 8.14645 9.64645L8.85355 10.3536ZM11.5 7L11.8536 6.64645C11.9473 6.74021 12 6.86739 12 7C12 7.13261 11.9473 7.25979 11.8536 7.35355L11.5 7ZM8.14645 4.35355C7.95118 4.15829 7.95118 3.84171 8.14645 3.64645C8.34171 3.45118 8.65829 3.45118 8.85355 3.64645L8.14645 4.35355ZM8.14645 9.64645L11.1464 6.64645L11.8536 7.35355L8.85355 10.3536L8.14645 9.64645ZM11.1464 7.35355L8.14645 4.35355L8.85355 3.64645L11.8536 6.64645L11.1464 7.35355Z" fill="#B4B4B4"/>
</svg>
