<svg width="36" height="36" viewBox="0 0 36 36" fill="none" xmlns="http://www.w3.org/2000/svg">
<rect width="36" height="36" rx="18" fill="white"/>
<path d="M17.5833 26.125C12.875 26.125 9.04163 22.2916 9.04163 17.5833C9.04163 12.875 12.875 9.04163 17.5833 9.04163C22.2916 9.04163 26.125 12.875 26.125 17.5833C26.125 22.2916 22.2916 26.125 17.5833 26.125ZM17.5833 10.2916C13.5583 10.2916 10.2916 13.5666 10.2916 17.5833C10.2916 21.6 13.5583 24.875 17.5833 24.875C21.6083 24.875 24.875 21.6 24.875 17.5833C24.875 13.5666 21.6083 10.2916 17.5833 10.2916Z" fill="#111111"/>
<path d="M26.3333 26.9583C26.175 26.9583 26.0166 26.9 25.8916 26.775L24.225 25.1083C23.9833 24.8666 23.9833 24.4666 24.225 24.225C24.4666 23.9833 24.8666 23.9833 25.1083 24.225L26.775 25.8916C27.0166 26.1333 27.0166 26.5333 26.775 26.775C26.65 26.9 26.4916 26.9583 26.3333 26.9583Z" fill="#111111"/>
</svg>
