<svg width="36" height="36" viewBox="0 0 36 36" fill="none" xmlns="http://www.w3.org/2000/svg">
<path d="M22.5 19.4249H12C11.385 19.4249 10.875 18.9149 10.875 18.2999C10.875 17.6849 11.385 17.1749 12 17.1749H22.5C23.115 17.1749 23.625 17.6849 23.625 18.2999C23.625 18.9149 23.115 19.4249 22.5 19.4249Z" fill="#949494"/>
<path d="M18.57 25.4249H12C11.385 25.4249 10.875 24.9149 10.875 24.2999C10.875 23.6849 11.385 23.1749 12 23.1749H18.57C19.185 23.1749 19.695 23.6849 19.695 24.2999C19.695 24.9149 19.185 25.4249 18.57 25.4249Z" fill="#949494"/>
<path d="M21 10.125H15C13.56 10.125 10.875 10.125 10.875 6C10.875 1.875 13.56 1.875 15 1.875H21C22.44 1.875 25.125 1.875 25.125 6C25.125 7.44 25.125 10.125 21 10.125ZM15 4.125C13.515 4.125 13.125 4.125 13.125 6C13.125 7.875 13.515 7.875 15 7.875H21C22.875 7.875 22.875 7.485 22.875 6C22.875 4.125 22.485 4.125 21 4.125H15Z" fill="#949494"/>
<path d="M22.5 34.125H13.5C5.07 34.125 3.375 30.255 3.375 24V15C3.375 8.16002 5.85 5.23502 11.94 4.92002C12.54 4.89002 13.095 5.35502 13.125 5.98502C13.155 6.61502 12.675 7.12502 12.06 7.15502C7.8 7.39502 5.625 8.67002 5.625 15V24C5.625 29.55 6.72 31.875 13.5 31.875H22.5C29.28 31.875 30.375 29.55 30.375 24V15C30.375 8.67002 28.2 7.39502 23.94 7.15502C23.325 7.12502 22.845 6.58502 22.875 5.97002C22.905 5.35502 23.445 4.87502 24.06 4.90502C30.15 5.23502 32.625 8.16002 32.625 14.985V23.985C32.625 30.255 30.93 34.125 22.5 34.125Z" fill="#949494"/>
</svg>
