<svg width="12" height="12" viewBox="0 0 12 12" fill="none" xmlns="http://www.w3.org/2000/svg">
<path fill-rule="evenodd" clip-rule="evenodd" d="M6.75004 1.3335C6.75004 0.919283 6.41425 0.583496 6.00004 0.583496C5.58583 0.583496 5.25004 0.919283 5.25004 1.3335V5.25015H1.33337C0.91916 5.25015 0.583374 5.58594 0.583374 6.00015C0.583374 6.41437 0.91916 6.75015 1.33337 6.75015H5.25004V10.6668C5.25004 11.081 5.58583 11.4168 6.00004 11.4168C6.41425 11.4168 6.75004 11.081 6.75004 10.6668V6.75015H10.6667C11.0809 6.75015 11.4167 6.41437 11.4167 6.00015C11.4167 5.58594 11.0809 5.25015 10.6667 5.25015H6.75004V1.3335Z" fill="white"/>
</svg>
