<svg width="100" height="100" viewBox="0 0 100 100" fill="none" xmlns="http://www.w3.org/2000/svg">
<ellipse cx="50" cy="50.3544" rx="50" ry="49.6454" fill="#FDE2E2"/>
<path d="M67.8 57.85L55.8 36.25C54.1875 33.3438 51.9563 31.75 49.5 31.75C47.0438 31.75 44.8125 33.3438 43.2 36.25L31.2 57.85C29.6813 60.6063 29.5125 63.25 30.7313 65.3312C31.95 67.4125 34.35 68.5562 37.5 68.5562H61.5C64.65 68.5562 67.05 67.4125 68.2688 65.3312C69.4875 63.25 69.3188 60.5875 67.8 57.85ZM48.0938 44.875C48.0938 44.1062 48.7313 43.4688 49.5 43.4688C50.2688 43.4688 50.9063 44.1062 50.9063 44.875V54.25C50.9063 55.0187 50.2688 55.6562 49.5 55.6562C48.7313 55.6562 48.0938 55.0187 48.0938 54.25V44.875ZM50.8313 61.2062C50.7375 61.2812 50.6438 61.3563 50.55 61.4312C50.4375 61.5063 50.325 61.5625 50.2125 61.6C50.1 61.6562 49.9875 61.6937 49.8563 61.7125C49.7438 61.7312 49.6125 61.75 49.5 61.75C49.3875 61.75 49.2563 61.7312 49.125 61.7125C49.0125 61.6937 48.9 61.6562 48.7875 61.6C48.675 61.5625 48.5625 61.5063 48.45 61.4312C48.3563 61.3563 48.2625 61.2812 48.1688 61.2062C47.8313 60.85 47.625 60.3625 47.625 59.875C47.625 59.3875 47.8313 58.9 48.1688 58.5438C48.2625 58.4688 48.3563 58.3937 48.45 58.3188C48.5625 58.2437 48.675 58.1875 48.7875 58.15C48.9 58.0938 49.0125 58.0563 49.125 58.0375C49.3688 57.9813 49.6313 57.9813 49.8563 58.0375C49.9875 58.0563 50.1 58.0938 50.2125 58.15C50.325 58.1875 50.4375 58.2437 50.55 58.3188C50.6438 58.3937 50.7375 58.4688 50.8313 58.5438C51.1688 58.9 51.375 59.3875 51.375 59.875C51.375 60.3625 51.1688 60.85 50.8313 61.2062Z" fill="#F65556"/>
</svg>
