<svg width="100" height="100" viewBox="0 0 100 100" fill="none" xmlns="http://www.w3.org/2000/svg">
<rect width="100" height="100" rx="50" fill="#F1F5F9"/>
<path d="M57.9166 29.6042C57.0624 28.75 55.5833 29.3334 55.5833 30.5209V37.7917C55.5833 40.8334 58.1666 43.3542 61.3124 43.3542C63.2916 43.375 66.0416 43.375 68.3958 43.375C69.5833 43.375 70.2082 41.9792 69.3749 41.1459C66.3749 38.125 60.9999 32.6875 57.9166 29.6042Z" fill="#8E9BAE"/>
<path d="M67.7083 46.2292H61.6874C56.7499 46.2292 52.7291 42.2084 52.7291 37.2709V31.2501C52.7291 30.1042 51.7916 29.1667 50.6458 29.1667H41.8124C35.3958 29.1667 30.2083 33.3334 30.2083 40.7709V59.2293C30.2083 66.6668 35.3958 70.8334 41.8124 70.8334H58.1874C64.6041 70.8334 69.7916 66.6668 69.7916 59.2293V48.3126C69.7916 47.1667 68.8541 46.2292 67.7083 46.2292ZM48.9583 61.9793H40.6249C39.7708 61.9793 39.0624 61.2709 39.0624 60.4167C39.0624 59.5626 39.7708 58.8542 40.6249 58.8542H48.9583C49.8124 58.8542 50.5208 59.5626 50.5208 60.4167C50.5208 61.2709 49.8124 61.9793 48.9583 61.9793ZM53.1249 53.6459H40.6249C39.7708 53.6459 39.0624 52.9376 39.0624 52.0834C39.0624 51.2292 39.7708 50.5209 40.6249 50.5209H53.1249C53.9791 50.5209 54.6874 51.2292 54.6874 52.0834C54.6874 52.9376 53.9791 53.6459 53.1249 53.6459Z" fill="#8E9BAE"/>
</svg>
