<svg width="100" height="100" viewBox="0 0 100 100" fill="none" xmlns="http://www.w3.org/2000/svg">
<ellipse cx="50" cy="50.3546" rx="50" ry="49.6454" fill="#E9F1FF"/>
<path d="M49.5 31.75C39.1687 31.75 30.75 40.1687 30.75 50.5C30.75 60.8313 39.1687 69.25 49.5 69.25C59.8313 69.25 68.25 60.8313 68.25 50.5C68.25 40.1687 59.8313 31.75 49.5 31.75ZM57 51.9062H50.9062V58C50.9062 58.7687 50.2687 59.4062 49.5 59.4062C48.7313 59.4062 48.0938 58.7687 48.0938 58V51.9062H42C41.2312 51.9062 40.5938 51.2687 40.5938 50.5C40.5938 49.7313 41.2312 49.0938 42 49.0938H48.0938V43C48.0938 42.2312 48.7313 41.5938 49.5 41.5938C50.2687 41.5938 50.9062 42.2312 50.9062 43V49.0938H57C57.7687 49.0938 58.4062 49.7313 58.4062 50.5C58.4062 51.2687 57.7687 51.9062 57 51.9062Z" fill="#2873FF"/>
</svg>
