<svg width="35" height="35" viewBox="0 0 35 35" fill="none" xmlns="http://www.w3.org/2000/svg">
<circle cx="17.5" cy="17.5" r="17.5" fill="#E8ECFD"/>
<circle cx="17.5" cy="17.5" r="13.125" fill="#2873FF"/>
<path d="M20.4166 14.5833C20.1201 14.5833 19.8478 14.4132 19.7117 14.1507L19.3617 13.4458C19.1381 13.0035 18.5548 12.6389 18.059 12.6389H16.9458C16.4451 12.6389 15.8617 13.0035 15.6381 13.4458L15.2881 14.1507C15.152 14.4132 14.8798 14.5833 14.5833 14.5833C13.5284 14.5833 12.6923 15.4729 12.7603 16.5229L13.0131 20.5382C13.0715 21.5396 13.611 22.3611 14.9527 22.3611H20.0472C21.3888 22.3611 21.9235 21.5396 21.9867 20.5382L22.2395 16.5229C22.3076 15.4729 21.4715 14.5833 20.4166 14.5833ZM16.7708 15.191H18.2291C18.4284 15.191 18.5937 15.3563 18.5937 15.5556C18.5937 15.7549 18.4284 15.9201 18.2291 15.9201H16.7708C16.5715 15.9201 16.4062 15.7549 16.4062 15.5556C16.4062 15.3563 16.5715 15.191 16.7708 15.191ZM17.4999 20.475C16.5958 20.475 15.8569 19.741 15.8569 18.8319C15.8569 17.9229 16.5909 17.1889 17.4999 17.1889C18.409 17.1889 19.143 17.9229 19.143 18.8319C19.143 19.741 18.4041 20.475 17.4999 20.475Z" fill="white"/>
</svg>
