<svg width="143" height="142" viewBox="0 0 143 142" fill="none" xmlns="http://www.w3.org/2000/svg">
<circle cx="70.5" cy="72" r="70" fill="#EAF0F5"/>
<rect x="19.5" y="42" width="102" height="60.6835" rx="10.3291" fill="white"/>
<rect x="27.2468" y="89.7729" width="19.3671" height="5.16456" rx="2.58228" fill="#F6F8FA"/>
<rect x="27.2468" y="67.8228" width="49.0633" height="6.4557" rx="3.22785" fill="#EAF0F5"/>
<rect x="49.1962" y="89.7729" width="19.3671" height="5.16456" rx="2.58228" fill="#F6F8FA"/>
<rect x="71.1456" y="89.7729" width="19.3671" height="5.16456" rx="2.58228" fill="#F6F8FA"/>
<rect x="93.0948" y="89.7729" width="19.3671" height="5.16456" rx="2.58228" fill="#F6F8FA"/>
<circle cx="40.1582" cy="56.2028" r="6.4557" fill="#347AF6" fill-opacity="0.2"/>
<circle cx="33.7025" cy="56.203" r="6.4557" fill="#347AF6"/>
<circle cx="124.5" cy="18" r="17" fill="#347AF6" stroke="white" stroke-width="2"/>
<path fill-rule="evenodd" clip-rule="evenodd" d="M132.549 12.3515C133.017 12.8201 133.017 13.5799 132.549 14.0485L122.949 23.6485C122.48 24.1172 121.72 24.1172 121.251 23.6485L116.451 18.8485C115.983 18.3799 115.983 17.6201 116.451 17.1515C116.92 16.6828 117.68 16.6828 118.149 17.1515L122.1 21.1029L130.851 12.3515C131.32 11.8828 132.08 11.8828 132.549 12.3515Z" fill="white"/>
</svg>
