<svg width="20" height="20" viewBox="0 0 20 20" fill="none" xmlns="http://www.w3.org/2000/svg">
<path d="M16.5682 6.27333C16.4232 6.0025 16.1407 5.83333 15.8332 5.83333H11.9382L13.3015 1.0625C13.3732 0.810833 13.3232 0.540833 13.1657 0.331667C13.0082 0.1225 12.7615 0 12.4999 0H6.66653C6.29069 0 5.96153 0.251667 5.86236 0.614167L3.36236 9.78083C3.29403 10.0317 3.34653 10.3 3.50403 10.5058C3.66236 10.7117 3.90653 10.8333 4.16653 10.8333H8.16819L6.67986 19.0175C6.60903 19.4058 6.82069 19.7908 7.18736 19.9392C7.28986 19.9808 7.39569 20 7.49986 20C7.77236 20 8.03569 19.8667 8.19403 19.6292L16.5274 7.12917C16.6974 6.87333 16.7132 6.545 16.5682 6.27333Z" fill="#FF6264"/>
</svg>
