<svg width="142" height="142" viewBox="0 0 142 142" fill="none" xmlns="http://www.w3.org/2000/svg">
<circle cx="70" cy="72" r="70" fill="#F7C5BD"/>
<rect x="19" y="42" width="102" height="60.6835" rx="10.3291" fill="white"/>
<rect x="26.7468" y="89.7729" width="19.3671" height="5.16456" rx="2.58228" fill="#F6F8FA"/>
<rect x="26.7468" y="67.8228" width="49.0633" height="6.4557" rx="3.22785" fill="#EAF0F5"/>
<rect x="48.6962" y="89.7729" width="19.3671" height="5.16456" rx="2.58228" fill="#F6F8FA"/>
<rect x="70.6456" y="89.7729" width="19.3671" height="5.16456" rx="2.58228" fill="#F6F8FA"/>
<rect x="92.5948" y="89.7729" width="19.3671" height="5.16456" rx="2.58228" fill="#F6F8FA"/>
<circle cx="39.6582" cy="56.2028" r="6.4557" fill="#EAF0F5"/>
<circle cx="33.2025" cy="56.203" r="6.4557" fill="#E8503A"/>
<circle cx="124" cy="18" r="17" fill="#E8503A" stroke="white" stroke-width="2"/>
<path fill-rule="evenodd" clip-rule="evenodd" d="M117.151 11.1515C117.62 10.6828 118.38 10.6828 118.849 11.1515L124 16.3029L129.151 11.1515C129.62 10.6828 130.38 10.6828 130.849 11.1515C131.317 11.6201 131.317 12.3799 130.849 12.8485L125.697 18L130.849 23.1515C131.317 23.6201 131.317 24.3799 130.849 24.8485C130.38 25.3171 129.62 25.3171 129.151 24.8485L124 19.697L118.849 24.8485C118.38 25.3171 117.62 25.3171 117.151 24.8485C116.683 24.3799 116.683 23.6201 117.151 23.1515L122.303 18L117.151 12.8485C116.683 12.3799 116.683 11.6201 117.151 11.1515Z" fill="white"/>
</svg>
