<svg width="21" height="20" viewBox="0 0 21 20" fill="none" xmlns="http://www.w3.org/2000/svg">
<path d="M18 18.3333H3C2.65833 18.3333 2.375 18.0499 2.375 17.7083C2.375 17.3666 2.65833 17.0833 3 17.0833H18C18.3417 17.0833 18.625 17.3666 18.625 17.7083C18.625 18.0499 18.3417 18.3333 18 18.3333Z" fill="#22C36B"/>
<path d="M16.35 2.90005C14.7333 1.28338 13.15 1.24172 11.4916 2.90005L10.4833 3.90838C10.4 3.99172 10.3666 4.12505 10.4 4.24172C11.0333 6.45005 12.8 8.21672 15.0083 8.85005C15.0416 8.85838 15.075 8.86672 15.1083 8.86672C15.2 8.86672 15.2833 8.83338 15.35 8.76672L16.35 7.75838C17.175 6.94172 17.575 6.15005 17.575 5.35005C17.5833 4.52505 17.1833 3.72505 16.35 2.90005Z" fill="#22C36B"/>
<path d="M13.5084 9.60841C13.2668 9.49175 13.0334 9.37508 12.8084 9.24175C12.6251 9.13342 12.4501 9.01675 12.2751 8.89175C12.1334 8.80008 11.9668 8.66675 11.8084 8.53341C11.7918 8.52508 11.7334 8.47508 11.6668 8.40842C11.3918 8.17508 11.0834 7.87508 10.8084 7.54175C10.7834 7.52508 10.7418 7.46675 10.6834 7.39175C10.6001 7.29175 10.4584 7.12508 10.3334 6.93341C10.2334 6.80841 10.1168 6.62508 10.0084 6.44175C9.8751 6.21675 9.75844 5.99175 9.64177 5.75841C9.4888 5.43063 9.05859 5.33326 8.80282 5.58903L4.11677 10.2751C4.00844 10.3834 3.90844 10.5917 3.88344 10.7334L3.43344 13.9251C3.3501 14.4917 3.50844 15.0251 3.85844 15.3834C4.15844 15.6751 4.5751 15.8334 5.0251 15.8334C5.1251 15.8334 5.2251 15.8251 5.3251 15.8084L8.5251 15.3584C8.6751 15.3334 8.88344 15.2334 8.98344 15.1251L13.6772 10.4313C13.9279 10.1806 13.8337 9.74936 13.5084 9.60841Z" fill="#22C36B"/>
</svg>
