<svg width="231" height="222" viewBox="0 0 231 222" fill="none" xmlns="http://www.w3.org/2000/svg">
<path d="M111.487 35.6446L128.561 17.5593" stroke="#F1F5F9" stroke-width="3.40789" stroke-linecap="round"/>
<path d="M211.925 106.981L228.999 88.8958" stroke="#2873FF" stroke-width="3.40789" stroke-linecap="round"/>
<path d="M170.745 212.479L187.82 194.394" stroke="#FACC15" stroke-width="3.40789" stroke-linecap="round"/>
<path d="M4.0166 97.9386L21.0912 79.8533" stroke="#FACC15" stroke-width="3.40789" stroke-linecap="round"/>
<path d="M49.2148 195.398L66.2894 177.313" stroke="#2873FF" stroke-width="3.40789" stroke-linecap="round"/>
<ellipse cx="83.3652" cy="4.49772" rx="4.01755" ry="4.01896" fill="#2873FF"/>
<ellipse cx="65.2841" cy="41.673" rx="4.01755" ry="4.01896" fill="#F1F5F9"/>
<ellipse cx="34.1484" cy="118.033" rx="4.01755" ry="4.01896" fill="#F1F5F9"/>
<ellipse cx="4.01755" cy="168.27" rx="4.01755" ry="4.01896" fill="#2873FF"/>
<ellipse cx="93.4087" cy="217.503" rx="4.01755" ry="4.01896" fill="#F1F5F9"/>
<ellipse cx="155.68" cy="177.313" rx="5.02193" ry="5.0237" fill="#FACC15"/>
<ellipse cx="202.886" cy="152.194" rx="5.02193" ry="5.0237" fill="#F1F5F9"/>
<ellipse cx="183.802" cy="38.659" rx="5.02193" ry="5.0237" fill="#2873FF"/>
<ellipse cx="177.777" cy="84.8768" rx="3.01316" ry="3.01422" fill="#F1F5F9"/>
<ellipse cx="13.0566" cy="42.6778" rx="3.01316" ry="3.01422" fill="#FACC15"/>
<ellipse cx="114.501" cy="112.005" rx="50.2193" ry="50.237" fill="#2873FF"/>
<path d="M132.454 100.577L109.605 123.434L98.1797 112.006" stroke="white" stroke-width="5.67982" stroke-linecap="round" stroke-linejoin="round"/>
</svg>
