<svg width="40" height="40" viewBox="0 0 40 40" fill="none" xmlns="http://www.w3.org/2000/svg">
<rect width="40" height="40" rx="20" fill="#10192D" fill-opacity="0.8"/>
<path d="M25.625 16.667V18.417C25.2583 18.367 24.8417 18.342 24.375 18.3337V16.667C24.375 14.042 23.6333 12.292 20 12.292C16.3667 12.292 15.625 14.042 15.625 16.667V18.3337C15.1583 18.342 14.7417 18.367 14.375 18.417V16.667C14.375 14.2503 14.9583 11.042 20 11.042C25.0417 11.042 25.625 14.2503 25.625 16.667Z" fill="white"/>
<path d="M25.6243 18.4163C25.2577 18.3663 24.841 18.3413 24.3743 18.333H15.6243C15.1577 18.3413 14.741 18.3663 14.3743 18.4163C12.2493 18.6747 11.666 19.7163 11.666 22.4997V24.1663C11.666 27.4997 12.4993 28.333 15.8327 28.333H24.166C27.4993 28.333 28.3327 27.4997 28.3327 24.1663V22.4997C28.3327 19.7163 27.7493 18.6747 25.6243 18.4163ZM17.2577 23.9247C17.0993 24.0747 16.8827 24.1663 16.666 24.1663C16.5577 24.1663 16.4493 24.1413 16.3493 24.0997C16.241 24.058 16.1577 23.9997 16.0743 23.9247C15.9243 23.7663 15.8327 23.5497 15.8327 23.333C15.8327 23.2247 15.8577 23.1163 15.8993 23.0163C15.941 22.9163 15.9993 22.8247 16.0743 22.7413C16.1577 22.6663 16.241 22.608 16.3493 22.5663C16.6577 22.433 17.0243 22.508 17.2577 22.7413C17.3327 22.8247 17.391 22.9163 17.4327 23.0163C17.4743 23.1163 17.4993 23.2247 17.4993 23.333C17.4993 23.5497 17.4077 23.7663 17.2577 23.9247ZM20.766 23.6497C20.7243 23.7497 20.666 23.8413 20.591 23.9247C20.4327 24.0747 20.216 24.1663 19.9993 24.1663C19.7743 24.1663 19.566 24.0747 19.4077 23.9247C19.3327 23.8413 19.2743 23.7497 19.2327 23.6497C19.191 23.5497 19.166 23.4413 19.166 23.333C19.166 23.108 19.2577 22.8997 19.4077 22.7413C19.716 22.433 20.2743 22.433 20.591 22.7413C20.741 22.8997 20.8327 23.108 20.8327 23.333C20.8327 23.4413 20.8077 23.5497 20.766 23.6497ZM23.9243 23.9247C23.766 24.0747 23.5493 24.1663 23.3327 24.1663C23.116 24.1663 22.8993 24.0747 22.741 23.9247C22.591 23.7663 22.4993 23.558 22.4993 23.333C22.4993 23.108 22.591 22.8997 22.741 22.7413C23.0577 22.433 23.616 22.433 23.9243 22.7413C23.9577 22.783 23.991 22.8247 24.0243 22.8747C24.0577 22.9163 24.0827 22.9663 24.0993 23.0163C24.1243 23.0663 24.141 23.1163 24.1493 23.1663C24.1577 23.2247 24.166 23.283 24.166 23.333C24.166 23.5497 24.0743 23.7663 23.9243 23.9247Z" fill="white"/>
</svg>
