<svg width="100" height="100" viewBox="0 0 100 100" fill="none" xmlns="http://www.w3.org/2000/svg">
<rect width="100" height="100" rx="50" fill="#F1F5F9"/>
<path d="M60.417 29.1667H39.5837C33.8337 29.1667 29.167 33.8126 29.167 39.5417V52.0001V54.0834C29.167 59.8126 33.8337 64.4584 39.5837 64.4584H42.7087C43.2712 64.4584 44.0212 64.8334 44.3753 65.2917L47.5003 69.4376C48.8753 71.2709 51.1253 71.2709 52.5003 69.4376L55.6253 65.2917C56.0212 64.7709 56.6462 64.4584 57.292 64.4584H60.417C66.167 64.4584 70.8337 59.8126 70.8337 54.0834V39.5417C70.8337 33.8126 66.167 29.1667 60.417 29.1667ZM41.667 50.0001C40.5003 50.0001 39.5837 49.0626 39.5837 47.9167C39.5837 46.7709 40.5212 45.8334 41.667 45.8334C42.8128 45.8334 43.7503 46.7709 43.7503 47.9167C43.7503 49.0626 42.8337 50.0001 41.667 50.0001ZM50.0003 50.0001C48.8337 50.0001 47.917 49.0626 47.917 47.9167C47.917 46.7709 48.8545 45.8334 50.0003 45.8334C51.1462 45.8334 52.0837 46.7709 52.0837 47.9167C52.0837 49.0626 51.167 50.0001 50.0003 50.0001ZM58.3337 50.0001C57.167 50.0001 56.2503 49.0626 56.2503 47.9167C56.2503 46.7709 57.1878 45.8334 58.3337 45.8334C59.4795 45.8334 60.417 46.7709 60.417 47.9167C60.417 49.0626 59.5003 50.0001 58.3337 50.0001Z" fill="#64748B"/>
</svg>
