<svg width="36" height="36" viewBox="0 0 36 36" fill="none" xmlns="http://www.w3.org/2000/svg">
<path d="M18.0167 25.1083C16.0751 25.1083 14.1334 24.8 12.2917 24.1833C11.5917 23.9417 11.0584 23.45 10.8251 22.8083C10.5834 22.1667 10.6667 21.4583 11.0501 20.825L12.0084 19.2333C12.2084 18.9 12.3917 18.2333 12.3917 17.8417V15.4333C12.3917 12.3333 14.9167 9.80835 18.0167 9.80835C21.1167 9.80835 23.6417 12.3333 23.6417 15.4333V17.8417C23.6417 18.225 23.8251 18.9 24.0251 19.2417L24.9751 20.825C25.3334 21.425 25.4001 22.15 25.1584 22.8083C24.9167 23.4667 24.3917 23.9667 23.7334 24.1833C21.9001 24.8 19.9584 25.1083 18.0167 25.1083ZM18.0167 11.0583C15.6084 11.0583 13.6417 13.0167 13.6417 15.4333V17.8417C13.6417 18.45 13.3917 19.35 13.0834 19.875L12.1251 21.4667C11.9417 21.775 11.8917 22.1 12.0001 22.375C12.1001 22.6583 12.3501 22.875 12.6917 22.9917C16.1751 24.1583 19.8667 24.1583 23.3501 22.9917C23.6501 22.8917 23.8834 22.6667 23.9917 22.3667C24.1001 22.0667 24.0751 21.7417 23.9084 21.4667L22.9501 19.875C22.6334 19.3333 22.3917 18.4417 22.3917 17.8333V15.4333C22.3917 13.0167 20.4334 11.0583 18.0167 11.0583Z" fill="#111111"/>
<path d="M19.5667 11.2833C19.5084 11.2833 19.4501 11.275 19.3917 11.2583C19.1501 11.1917 18.9167 11.1417 18.6917 11.1083C17.9834 11.0167 17.3001 11.0667 16.6584 11.2583C16.4251 11.3333 16.1751 11.2583 16.0167 11.0833C15.8584 10.9083 15.8084 10.6583 15.9001 10.4333C16.2417 9.55834 17.0751 8.98334 18.0251 8.98334C18.9751 8.98334 19.8084 9.55 20.1501 10.4333C20.2334 10.6583 20.1917 10.9083 20.0334 11.0833C19.9084 11.2167 19.7334 11.2833 19.5667 11.2833Z" fill="#111111"/>
<path d="M18.0167 27.0084C17.1917 27.0084 16.3917 26.675 15.8084 26.0917C15.2251 25.5084 14.8917 24.7084 14.8917 23.8834H16.1417C16.1417 24.375 16.3417 24.8584 16.6917 25.2084C17.0417 25.5584 17.5251 25.7584 18.0167 25.7584C19.0501 25.7584 19.8917 24.9167 19.8917 23.8834H21.1417C21.1417 25.6084 19.7417 27.0084 18.0167 27.0084Z" fill="#111111"/>
<circle cx="28" cy="9" r="3" fill="#F75555"/>
</svg>
