<svg width="100" height="100" viewBox="0 0 100 100" fill="none" xmlns="http://www.w3.org/2000/svg">
<rect width="100" height="100" rx="50" fill="#F1F5F9"/>
<path d="M64.3751 56.3125C59.7709 56.3125 56.0417 60.0417 56.0417 64.6458C56.0417 69.25 59.7709 72.9792 64.3751 72.9792C68.9792 72.9792 72.7084 69.25 72.7084 64.6458C72.7084 60.0417 68.9792 56.3125 64.3751 56.3125ZM67.7084 68.0833C67.3959 68.3958 67.0001 68.5417 66.6042 68.5417C66.2084 68.5417 65.8126 68.3958 65.5001 68.0833L64.3959 66.9792L63.2501 68.125C62.9376 68.4375 62.5417 68.5833 62.1459 68.5833C61.7501 68.5833 61.3542 68.4375 61.0417 68.125C60.4376 67.5208 60.4376 66.5208 61.0417 65.9167L62.1876 64.7708L61.0834 63.6667C60.4792 63.0625 60.4792 62.0625 61.0834 61.4583C61.6876 60.8542 62.6876 60.8542 63.2917 61.4583L64.3959 62.5625L65.4376 61.5208C66.0417 60.9167 67.0417 60.9167 67.6459 61.5208C68.2501 62.125 68.2501 63.125 67.6459 63.7292L66.6042 64.7708L67.7084 65.875C68.3126 66.4792 68.3126 67.4792 67.7084 68.0833Z" fill="#8E9BAE"/>
<path d="M70.8334 40.7292V41.6667C70.8334 42.8125 69.8959 43.75 68.7501 43.75H31.2501C30.1042 43.75 29.1667 42.8125 29.1667 41.6667V40.7083C29.1667 35.9375 33.0209 32.0833 37.7917 32.0833H62.1876C66.9584 32.0833 70.8334 35.9583 70.8334 40.7292Z" fill="#8E9BAE"/>
<path d="M29.1667 48.9583V59.2917C29.1667 64.0625 33.0209 67.9167 37.7917 67.9167H50.8334C52.0417 67.9167 53.0834 66.8958 52.9792 65.6875C52.6876 62.5 53.7084 59.0417 56.5417 56.2917C57.7084 55.1458 59.1459 54.2708 60.7084 53.7708C63.3126 52.9375 65.8334 53.0417 68.0626 53.7917C69.4168 54.25 70.8334 53.2708 70.8334 51.8333V48.9375C70.8334 47.7917 69.8959 46.8542 68.7501 46.8542H31.2501C30.1042 46.875 29.1667 47.8125 29.1667 48.9583ZM41.6667 60.9375H37.5001C36.6459 60.9375 35.9376 60.2292 35.9376 59.375C35.9376 58.5208 36.6459 57.8125 37.5001 57.8125H41.6667C42.5209 57.8125 43.2292 58.5208 43.2292 59.375C43.2292 60.2292 42.5209 60.9375 41.6667 60.9375Z" fill="#8E9BAE"/>
</svg>
