<svg width="88" height="88" viewBox="0 0 88 88" fill="none" xmlns="http://www.w3.org/2000/svg">
<rect width="88" height="88" rx="14" fill="#8B5CF6"/>
<path fill-rule="evenodd" clip-rule="evenodd" d="M24.2915 49.5001C24.2915 59.4551 28.5448 63.7084 38.4998 63.7084H49.4998C59.4548 63.7084 63.7082 59.4551 63.7082 49.5001V38.5001C63.7082 28.5451 59.4548 24.2917 49.4998 24.2917H38.4998C28.5448 24.2917 24.2915 28.5451 24.2915 38.5001V49.5001ZM42.6249 48.6017C42.6249 49.3533 43.2483 49.9767 43.9999 49.9767C44.7516 49.9767 45.3749 49.3717 45.3749 48.6017V37.2535L48.5282 40.4068C48.8032 40.6818 49.1516 40.8101 49.4999 40.8101C49.8482 40.8101 50.1966 40.6818 50.4716 40.4068C51.0032 39.8751 51.0032 38.9951 50.4716 38.4635L44.9716 32.9635C44.8565 32.8484 44.7251 32.7582 44.5845 32.693C44.4065 32.6078 44.2081 32.56 43.9999 32.56C43.7921 32.56 43.5941 32.6077 43.4163 32.6925C43.2753 32.7578 43.1436 32.8481 43.0282 32.9635L37.5282 38.4635C36.9966 38.9951 36.9966 39.8751 37.5282 40.4068C38.0599 40.9385 38.9399 40.9385 39.4716 40.4068L42.6249 37.2535V48.6017ZM43.9998 55.4218C40.1315 55.4218 36.2448 54.7984 32.5598 53.5701C31.8448 53.3318 31.4598 52.5434 31.6982 51.8284C31.9365 51.1134 32.7248 50.7101 33.4398 50.9668C40.2598 53.2401 47.7582 53.2401 54.5782 50.9668C55.2932 50.7284 56.0815 51.1134 56.3198 51.8284C56.5582 52.5434 56.1732 53.3318 55.4582 53.5701C51.7548 54.8168 47.8682 55.4218 43.9998 55.4218Z" fill="white"/>
</svg>
