<svg width="100" height="100" viewBox="0 0 100 100" fill="none" xmlns="http://www.w3.org/2000/svg">
<rect width="100" height="100" rx="50" fill="#F1F5F9"/>
<path d="M70.8337 69.2705C70.8337 70.1247 70.1253 70.833 69.2712 70.833H30.7295C29.8753 70.833 29.167 70.1247 29.167 69.2705C29.167 68.4163 29.8753 67.708 30.7295 67.708H69.2712C70.1253 67.708 70.8337 68.4163 70.8337 69.2705Z" fill="#64748B"/>
<path d="M57.0628 34.4167L34.6878 56.7917C33.8337 57.6458 32.4587 57.6458 31.6253 56.7917H31.6045C28.7087 53.875 28.7087 49.1667 31.6045 46.2708L46.5003 31.375C49.417 28.4583 54.1253 28.4583 57.042 31.375C57.8962 32.1875 57.8962 33.5833 57.0628 34.4167Z" fill="#64748B"/>
<path d="M68.3747 42.6872L62.0205 36.333C61.1663 35.4788 59.7913 35.4788 58.958 36.333L36.583 58.708C35.7288 59.5413 35.7288 60.9163 36.583 61.7705L42.9372 68.1455C45.8538 71.0413 50.5622 71.0413 53.4788 68.1455L68.3538 53.2497C71.3122 50.333 71.3122 45.6038 68.3747 42.6872ZM51.583 61.4997L49.0622 64.0413C48.5413 64.5622 47.6872 64.5622 47.1455 64.0413C46.6247 63.5205 46.6247 62.6663 47.1455 62.1247L49.6872 59.583C50.1872 59.083 51.0622 59.083 51.583 59.583C52.1038 60.1038 52.1038 60.9997 51.583 61.4997ZM59.8538 53.2288L54.7705 58.333C54.2497 58.833 53.3955 58.833 52.8538 58.333C52.333 57.8122 52.333 56.958 52.8538 56.4163L57.958 51.3122C58.458 50.8122 59.333 50.8122 59.8538 51.3122C60.3747 51.8538 60.3747 52.708 59.8538 53.2288Z" fill="#64748B"/>
</svg>
