<svg width="20" height="20" viewBox="0 0 20 20" fill="none" xmlns="http://www.w3.org/2000/svg">
<rect width="20" height="20" rx="6" fill="#FACC15"/>
<path d="M10 11C8.89922 11 8 10.1048 8 8.99741C8 7.89004 8.89922 7 10 7C11.1008 7 12 7.89521 12 9.00259C12 10.11 11.1008 11 10 11Z" fill="white"/>
<path d="M9.99998 16.2767C9.13665 16.2767 8.26748 15.95 7.59081 15.3025C5.86998 13.6459 3.96831 11.0034 4.68581 7.85919C5.33331 5.00669 7.82415 3.72919 9.99998 3.72919C9.99998 3.72919 9.99998 3.72919 10.0058 3.72919C12.1816 3.72919 14.6725 5.00669 15.32 7.86502C16.0316 11.0092 14.13 13.6459 12.4091 15.3025C11.7325 15.95 10.8633 16.2767 9.99998 16.2767ZM9.99998 4.60419C8.30248 4.60419 6.12081 5.50835 5.54331 8.05169C4.91331 10.7992 6.63998 13.1675 8.20331 14.6667C9.21248 15.6409 10.7933 15.6409 11.8025 14.6667C13.36 13.1675 15.0866 10.7992 14.4683 8.05169C13.885 5.50835 11.6975 4.60419 9.99998 4.60419Z" fill="white"/>
</svg>
