<svg width="71" height="10" viewBox="0 0 71 10" fill="none" xmlns="http://www.w3.org/2000/svg">
<path d="M0 1.78571C0 0.799491 0.840377 0 1.87703 0H13.1392C14.1759 0 15.0163 0.799492 15.0163 1.78571V1.92857L0 1.92857V1.78571Z" fill="white"/>
<path fill-rule="evenodd" clip-rule="evenodd" d="M0 2.85714L15.0163 2.85714V8.21429C15.0163 9.20051 14.1759 10 13.1392 10H1.87703C0.840377 10 0 9.20051 0 8.21429V2.85714ZM12.3884 7.85714C13.0104 7.85714 13.5146 7.37745 13.5146 6.78571C13.5146 6.19398 13.0104 5.71429 12.3884 5.71429C11.7664 5.71429 11.2622 6.19398 11.2622 6.78571C11.2622 7.37745 11.7664 7.85714 12.3884 7.85714Z" fill="white"/>
<path d="M26.8326 2.19071C27.0668 2.645 27.184 3.15071 27.184 3.70786C27.184 4.265 27.0668 4.77071 26.8326 5.225C26.5983 5.67071 26.2965 6.02643 25.9271 6.29214C25.1793 6.84072 24.4044 7.115 23.6026 7.115H21.9132V8.56786C21.9132 8.765 21.9042 8.915 21.8862 9.01786C21.8772 9.11214 21.8367 9.22357 21.7646 9.35214C21.6384 9.58357 21.2871 9.69929 20.7104 9.69929C20.0798 9.69929 19.7104 9.54072 19.6022 9.22357C19.5482 9.07786 19.5211 8.855 19.5211 8.555V1.41929C19.5211 1.22214 19.5257 1.07643 19.5347 0.982143C19.5527 0.879286 19.5977 0.763571 19.6698 0.635C19.7959 0.403571 20.1473 0.287857 20.7239 0.287857H23.6161C24.4089 0.287857 25.1793 0.562143 25.9271 1.11071C26.2965 1.37643 26.5983 1.73643 26.8326 2.19071ZM23.6161 4.83929C23.8864 4.83929 24.1522 4.745 24.4134 4.55643C24.6747 4.36786 24.8054 4.085 24.8054 3.70786C24.8054 3.33071 24.6747 3.04786 24.4134 2.85929C24.1522 2.66214 23.8819 2.56357 23.6026 2.56357H21.9132V4.83929H23.6161Z" fill="white"/>
<path d="M32.6551 0.956428L36.304 8.13071C36.4572 8.42214 36.5338 8.64071 36.5338 8.78643C36.5338 9.095 36.2725 9.37357 35.7499 9.62214C35.4436 9.76786 35.2003 9.84072 35.0201 9.84072C34.8489 9.84072 34.7048 9.80214 34.5877 9.725C34.4795 9.64786 34.3984 9.56643 34.3444 9.48071C34.2993 9.395 34.2318 9.26643 34.1417 9.095L33.4389 7.70643H29.6953L28.9926 9.095C28.9025 9.26643 28.8304 9.39071 28.7764 9.46786C28.7313 9.545 28.6502 9.62643 28.5331 9.71214C28.425 9.78929 28.2808 9.82786 28.1006 9.82786C27.9294 9.82786 27.6907 9.755 27.3843 9.60929C26.8618 9.36929 26.6005 9.095 26.6005 8.78643C26.6005 8.64071 26.6771 8.42214 26.8302 8.13071L30.4792 0.943571C30.5783 0.746428 30.727 0.587857 30.9252 0.467857C31.1324 0.347857 31.3486 0.287857 31.5739 0.287857C32.0604 0.287857 32.4208 0.510714 32.6551 0.956428ZM31.5604 4.04214L30.6684 5.80357H32.4659L31.5604 4.04214Z" fill="white"/>
<path d="M43.1054 0.467857C43.5468 0.759285 43.7676 1.04214 43.7676 1.31643C43.7676 1.47929 43.664 1.70643 43.4567 1.99786L40.5376 6.15072V8.60643C40.5376 8.80357 40.5286 8.95357 40.5105 9.05643C40.5015 9.15071 40.461 9.26214 40.3889 9.39071C40.3168 9.51929 40.1952 9.60929 40.024 9.66072C39.8528 9.71214 39.6231 9.73786 39.3348 9.73786C39.0465 9.73786 38.8167 9.71214 38.6455 9.66072C38.4743 9.60929 38.3527 9.51929 38.2806 9.39071C38.2086 9.25357 38.1635 9.13786 38.1455 9.04357C38.1365 8.94071 38.132 8.78643 38.132 8.58071V6.15072L35.2128 1.99786C35.0056 1.70643 34.902 1.47929 34.902 1.31643C34.902 1.04214 35.1002 0.780714 35.4966 0.532143C35.893 0.275 36.1769 0.146429 36.348 0.146429C36.5192 0.146429 36.6544 0.180714 36.7535 0.249285C36.9066 0.343571 37.0688 0.519286 37.24 0.776428L39.3348 3.965L41.4295 0.776428C41.6007 0.519286 41.7494 0.352143 41.8755 0.275C42.0017 0.189286 42.1458 0.146429 42.308 0.146429C42.4792 0.146429 42.745 0.253571 43.1054 0.467857Z" fill="white"/>
<path d="M52.0865 8.11786C52.2216 8.42643 52.2892 8.64929 52.2892 8.78643C52.2892 9.11214 52.0099 9.38643 51.4513 9.60929C51.163 9.72929 50.9287 9.78929 50.7485 9.78929C50.5773 9.78929 50.4332 9.75071 50.316 9.67357C50.2079 9.58786 50.1268 9.50214 50.0728 9.41643C49.9827 9.25357 49.6313 8.47786 49.0186 7.08929L48.5997 7.115H46.8968V8.56786C46.8968 8.765 46.8878 8.915 46.8698 9.01786C46.8608 9.11214 46.8203 9.22357 46.7482 9.35214C46.622 9.58357 46.2707 9.69929 45.694 9.69929C45.0634 9.69929 44.694 9.54072 44.5858 9.22357C44.5318 9.07786 44.5048 8.855 44.5048 8.555V1.41929C44.5048 1.22214 44.5093 1.07643 44.5183 0.982143C44.5363 0.879286 44.5813 0.763571 44.6534 0.635C44.7796 0.403571 45.1309 0.287857 45.7076 0.287857H48.6267C49.4196 0.287857 50.1899 0.562143 50.9377 1.11071C51.2981 1.37643 51.5954 1.73643 51.8297 2.19071C52.0639 2.645 52.1811 3.15071 52.1811 3.70786C52.1811 4.67643 51.8432 5.47357 51.1675 6.09929C51.3657 6.55357 51.672 7.22643 52.0865 8.11786ZM46.8968 4.83929H48.6267C48.888 4.83929 49.1493 4.745 49.4106 4.55643C49.6719 4.36786 49.8025 4.085 49.8025 3.70786C49.8025 3.33071 49.6719 3.04786 49.4106 2.85929C49.1493 2.66214 48.879 2.56357 48.5997 2.56357H46.8968V4.83929Z" fill="white"/>
<path d="M57.5477 0.172143C58.8811 0.172143 60.0388 0.630714 61.0209 1.54786C62.003 2.465 62.494 3.605 62.494 4.96786C62.494 6.32214 62.0255 7.47929 61.0885 8.43929C60.1515 9.39071 58.9982 9.86643 57.6287 9.86643C56.2593 9.86643 55.0925 9.395 54.1284 8.45214C53.1734 7.50929 52.6959 6.38643 52.6959 5.08357C52.6959 4.37214 52.831 3.70786 53.1013 3.09071C53.3716 2.465 53.732 1.94214 54.1825 1.52214C54.633 1.10214 55.1511 0.772143 55.7367 0.532143C56.3223 0.292143 56.926 0.172143 57.5477 0.172143ZM55.088 5.01929C55.088 5.78214 55.3448 6.40357 55.8583 6.88357C56.3809 7.355 56.962 7.59071 57.6017 7.59071C58.2414 7.59071 58.818 7.35929 59.3316 6.89643C59.8451 6.43357 60.1019 5.81214 60.1019 5.03214C60.1019 4.25214 59.8406 3.62643 59.3181 3.155C58.8045 2.68357 58.2279 2.44786 57.5882 2.44786C56.9485 2.44786 56.3719 2.68786 55.8583 3.16786C55.3448 3.63929 55.088 4.25643 55.088 5.01929Z" fill="white"/>
<path d="M67.6213 4.98071C68.9998 6.24071 69.9774 7.18786 70.554 7.82214C70.8513 8.13929 71 8.40929 71 8.63214C71 8.84643 70.8198 9.10357 70.4594 9.40357C70.099 9.695 69.8017 9.84072 69.5674 9.84072C69.3422 9.84072 69.0674 9.66072 68.743 9.30072L65.7698 6.07357V8.58071C65.7698 8.78643 65.7608 8.93643 65.7428 9.03071C65.7338 9.125 65.6932 9.23643 65.6212 9.365C65.495 9.59643 65.1436 9.71214 64.567 9.71214C63.9363 9.71214 63.5669 9.54929 63.4588 9.22357C63.4048 9.08643 63.3777 8.86786 63.3777 8.56786V1.41929C63.3777 1.22214 63.3822 1.07643 63.3913 0.982143C63.4093 0.879286 63.4543 0.763571 63.5264 0.635C63.6525 0.403571 64.0039 0.287857 64.5805 0.287857C65.2112 0.287857 65.5851 0.446428 65.7023 0.763571C65.7473 0.909286 65.7698 1.13214 65.7698 1.43214V3.88786C66.9952 2.57643 67.9862 1.50071 68.743 0.660714C69.0584 0.309285 69.3332 0.133571 69.5674 0.133571C69.8017 0.133571 70.099 0.283571 70.4594 0.583571C70.8198 0.875 71 1.13214 71 1.355C71 1.56929 70.8649 1.82643 70.5946 2.12643C70.072 2.70071 69.2611 3.48929 68.1619 4.49214L67.6213 4.98071Z" fill="white"/>
</svg>
