<svg width="14" height="14" viewBox="0 0 14 14" fill="none" xmlns="http://www.w3.org/2000/svg">
<path d="M1.6129 0.209705L1.70711 0.292893L7 5.585L12.2929 0.292893C12.6834 -0.0976311 13.3166 -0.0976311 13.7071 0.292893C14.0676 0.653377 14.0953 1.22061 13.7903 1.6129L13.7071 1.70711L8.415 7L13.7071 12.2929C14.0976 12.6834 14.0976 13.3166 13.7071 13.7071C13.3466 14.0676 12.7794 14.0953 12.3871 13.7903L12.2929 13.7071L7 8.415L1.70711 13.7071C1.31658 14.0976 0.683418 14.0976 0.292893 13.7071C-0.0675907 13.3466 -0.0953203 12.7794 0.209705 12.3871L0.292893 12.2929L5.585 7L0.292893 1.70711C-0.0976311 1.31658 -0.0976311 0.683418 0.292893 0.292893C0.623337 -0.0375504 1.12751 -0.0883879 1.5114 0.140381L1.6129 0.209705Z" fill="black"/>
</svg>
