<svg width="24" height="24" viewBox="0 0 24 24" fill="none" xmlns="http://www.w3.org/2000/svg">
<path d="M15 22.75H9C3.57 22.75 1.25 20.43 1.25 15V9C1.25 3.57 3.57 1.25 9 1.25H15C20.43 1.25 22.75 3.57 22.75 9V15C22.75 20.43 20.43 22.75 15 22.75ZM9 2.75C4.39 2.75 2.75 4.39 2.75 9V15C2.75 19.61 4.39 21.25 9 21.25H15C19.61 21.25 21.25 19.61 21.25 15V9C21.25 4.39 19.61 2.75 15 2.75H9Z" fill="#10192D"/>
<path d="M9.17235 14.0901H13.4124C13.8224 14.0901 14.1624 13.7501 14.1624 13.3401C14.1624 12.9301 13.8224 12.5901 13.4124 12.5901H9.92235V9.1001C9.92235 8.6901 9.58235 8.3501 9.17235 8.3501C8.76235 8.3501 8.42235 8.6901 8.42235 9.1001V13.3401C8.42235 13.7601 8.76235 14.0901 9.17235 14.0901Z" fill="#10192D"/>
<path d="M9.17233 14.0901C9.36233 14.0901 9.55233 14.0201 9.70233 13.8701L15.3623 8.21013C15.6523 7.92013 15.6523 7.44012 15.3623 7.15012C15.0723 6.86012 14.5923 6.86012 14.3023 7.15012L8.64233 12.8101C8.35233 13.1001 8.35233 13.5801 8.64233 13.8701C8.79233 14.0201 8.98233 14.0901 9.17233 14.0901Z" fill="#10192D"/>
<path d="M12 18.2302C9.88995 18.2302 7.76995 17.8902 5.75995 17.2202C5.36995 17.0902 5.15995 16.6602 5.28995 16.2702C5.41995 15.8802 5.84996 15.6602 6.23996 15.8002C9.95996 17.0402 14.05 17.0402 17.77 15.8002C18.16 15.6702 18.59 15.8802 18.72 16.2702C18.85 16.6602 18.64 17.0902 18.25 17.2202C16.23 17.9002 14.11 18.2302 12 18.2302Z" fill="#10192D"/>
</svg>
