<svg width="40" height="40" viewBox="0 0 40 40" fill="none" xmlns="http://www.w3.org/2000/svg">
<rect width="40" height="40" rx="20" fill="#10192D" fill-opacity="0.8"/>
<path d="M20.0004 28.9583C15.6671 28.9583 12.1504 25.4333 12.1504 21.1083C12.1504 16.7833 15.6671 13.25 20.0004 13.25C20.8921 13.25 21.7587 13.375 22.5921 13.6333C22.9254 13.7333 23.1087 14.0833 23.0087 14.4167C22.9087 14.75 22.5587 14.9333 22.2254 14.8333C21.5171 14.6167 20.7671 14.5 20.0004 14.5C16.3587 14.5 13.4004 17.4583 13.4004 21.1C13.4004 24.7417 16.3587 27.7 20.0004 27.7C23.6421 27.7 26.6004 24.7417 26.6004 21.1C26.6004 19.7833 26.2171 18.5167 25.4921 17.4333C25.3004 17.15 25.3754 16.7583 25.6671 16.5667C25.9504 16.375 26.3421 16.45 26.5337 16.7417C27.4004 18.0333 27.8587 19.5417 27.8587 21.1083C27.8504 25.4333 24.3337 28.9583 20.0004 28.9583Z" fill="white"/>
<path d="M23.4411 15.0582C23.2661 15.0582 23.0911 14.9832 22.9661 14.8415L20.5577 12.0748C20.3327 11.8165 20.3577 11.4165 20.6161 11.1915C20.8744 10.9665 21.2744 10.9915 21.4994 11.2498L23.9077 14.0165C24.1327 14.2748 24.1077 14.6748 23.8494 14.8998C23.7411 15.0082 23.5911 15.0582 23.4411 15.0582Z" fill="white"/>
<path d="M20.6329 17.1083C20.4412 17.1083 20.2495 17.0167 20.1245 16.85C19.9245 16.575 19.9829 16.1833 20.2579 15.975L23.0662 13.925C23.3412 13.7167 23.7329 13.7833 23.9412 14.0583C24.1495 14.3333 24.0829 14.725 23.8079 14.9333L20.9995 16.9917C20.8912 17.075 20.7662 17.1083 20.6329 17.1083Z" fill="white"/>
</svg>
