<svg width="156" height="48" viewBox="0 0 156 48" fill="none" xmlns="http://www.w3.org/2000/svg">
<rect x="8.5" y="8.5" width="31" height="31" rx="3.5" fill="white" stroke="#E2E8F0"/>
<path d="M19.2011 28.9409L21.5354 25.0874L17.4967 23.4201L18.1637 21.5304L22.3877 22.5678L22.7582 18.0845H24.759L25.1295 22.5308L29.3535 21.5304L29.9834 23.4201L25.9447 25.0874L28.3161 28.9409L26.6858 30.1266L23.7586 26.6066L20.8314 30.1266L19.2011 28.9409Z" fill="#8E9BAE"/>
<rect x="44.5" y="8.5" width="31" height="31" rx="3.5" fill="white" stroke="#E2E8F0"/>
<path d="M55.2011 28.9409L57.5354 25.0874L53.4967 23.4201L54.1637 21.5304L58.3877 22.5678L58.7582 18.0845H60.759L61.1295 22.5308L65.3535 21.5304L65.9834 23.4201L61.9447 25.0874L64.3161 28.9409L62.6858 30.1266L59.7586 26.6066L56.8314 30.1266L55.2011 28.9409Z" fill="#8E9BAE"/>
<rect x="80.5" y="8.5" width="31" height="31" rx="3.5" fill="white" stroke="#E2E8F0"/>
<path d="M91.2011 28.9409L93.5354 25.0874L89.4967 23.4201L90.1637 21.5304L94.3877 22.5678L94.7582 18.0845H96.759L97.1295 22.5308L101.354 21.5304L101.983 23.4201L97.9447 25.0874L100.316 28.9409L98.6858 30.1266L95.7586 26.6066L92.8314 30.1266L91.2011 28.9409Z" fill="#8E9BAE"/>
<rect x="116.5" y="8.5" width="31" height="31" rx="3.5" fill="white" stroke="#E2E8F0"/>
<path d="M127.201 28.9409L129.535 25.0874L125.497 23.4201L126.164 21.5304L130.388 22.5678L130.758 18.0845H132.759L133.13 22.5308L137.354 21.5304L137.983 23.4201L133.945 25.0874L136.316 28.9409L134.686 30.1266L131.759 26.6066L128.831 30.1266L127.201 28.9409Z" fill="#8E9BAE"/>
<rect x="1" y="1" width="154" height="46" stroke="#2873FF" stroke-width="2"/>
</svg>
