<svg width="88" height="88" viewBox="0 0 88 88" fill="none" xmlns="http://www.w3.org/2000/svg">
<rect width="88" height="88" rx="14" fill="#F9791F"/>
<path d="M51.59 27.4266L35.035 32.9266C23.9067 36.6483 23.9067 42.7166 35.035 46.42L39.9483 48.0516L41.58 52.965C45.2833 64.0933 51.37 64.0933 55.0733 52.965L60.5917 36.4283C63.0483 29.0033 59.015 24.9516 51.59 27.4266ZM52.1767 37.29L45.21 44.2933C44.935 44.5683 44.5867 44.6966 44.2383 44.6966C43.89 44.6966 43.5417 44.5683 43.2667 44.2933C42.735 43.7616 42.735 42.8816 43.2667 42.35L50.2333 35.3466C50.765 34.815 51.645 34.815 52.1767 35.3466C52.7083 35.8783 52.7083 36.7583 52.1767 37.29Z" fill="white"/>
</svg>
