<?xml version="1.0" encoding="utf-8"?>
<!-- Generator: Adobe Illustrator 26.0.2, SVG Export Plug-In . SVG Version: 6.00 Build 0)  -->
<svg version="1.1" id="Layer_1" xmlns="http://www.w3.org/2000/svg" xmlns:xlink="http://www.w3.org/1999/xlink" x="0px" y="0px"
	 viewBox="0 0 18 18" style="enable-background:new 0 0 18 18;" xml:space="preserve">
<style type="text/css">
	.st0{fill:#AA4343;fill-opacity:0;}
	.st1{fill:#FFFFFF;}
</style>
<rect class="st0" width="18" height="18"/>
<path class="st1" d="M10.2,16.8c0.1,0.6-0.3,1.2-0.9,1.2c-1.3,0-2.5-0.2-3.7-0.7c-1.5-0.6-2.9-1.7-3.8-3c-1-1.3-1.6-2.9-1.7-4.6
	c-0.1-1.7,0.2-3.3,1-4.8c0.8-1.5,1.9-2.7,3.3-3.6C5.7,0.5,7.3,0,9,0s3.3,0.5,4.7,1.3c1.1,0.7,2,1.6,2.7,2.6c0.3,0.5,0.1,1.2-0.4,1.5
	c-0.6,0.3-1.2,0.1-1.6-0.4c-0.5-0.7-1.2-1.3-1.9-1.7c-1.1-0.7-2.3-1-3.5-1c-1.2,0-2.5,0.3-3.5,1S3.6,4.8,3,5.9S2.2,8.3,2.3,9.5
	C2.4,10.8,2.8,12,3.5,13c0.7,1,1.7,1.8,2.9,2.3c0.8,0.3,1.7,0.5,2.5,0.5C9.6,15.8,10.1,16.2,10.2,16.8z"/>
</svg>
