<svg width="20" height="20" viewBox="0 0 20 20" fill="none" xmlns="http://www.w3.org/2000/svg">
<path d="M10 1.66669C5.39169 1.66669 1.66669 5.39169 1.66669 10C1.66669 14.6084 5.39169 18.3334 10 18.3334C14.6084 18.3334 18.3334 14.6084 18.3334 10C18.3334 5.39169 14.6084 1.66669 10 1.66669ZM13.5834 13.5834C13.2584 13.9084 12.7334 13.9084 12.4084 13.5834L10 11.175L7.59169 13.5834C7.26669 13.9084 6.74169 13.9084 6.41669 13.5834C6.09169 13.2584 6.09169 12.7334 6.41669 12.4084L8.82502 10L6.41669 7.59169C6.09169 7.26669 6.09169 6.74169 6.41669 6.41669C6.74169 6.09169 7.26669 6.09169 7.59169 6.41669L10 8.82502L12.4084 6.41669C12.7334 6.09169 13.2584 6.09169 13.5834 6.41669C13.9084 6.74169 13.9084 7.26669 13.5834 7.59169L11.175 10L13.5834 12.4084C13.9 12.725 13.9 13.2584 13.5834 13.5834Z" fill="#64748B"/>
</svg>
