<svg width="46" height="46" viewBox="0 0 46 46" fill="none" xmlns="http://www.w3.org/2000/svg">
<rect width="46" height="46" rx="23" fill="#0A1830"/>
<mask id="mask0_846_6536" style="mask-type:alpha" maskUnits="userSpaceOnUse" x="0" y="0" width="46" height="46">
<rect width="46" height="46" rx="23" fill="white"/>
</mask>
<g mask="url(#mask0_846_6536)">
</g>
<path d="M30.6649 27.811C30.388 28.4565 30.0459 29.072 29.6439 29.648C29.1069 30.415 28.6659 30.945 28.3279 31.24C27.8029 31.722 27.2389 31.97 26.6359 31.984C26.2039 31.984 25.6819 31.861 25.0739 31.611C24.4639 31.362 23.9039 31.24 23.3909 31.24C22.8539 31.24 22.2779 31.362 21.6609 31.611C21.0449 31.861 20.5469 31.992 20.1659 32.004C19.5889 32.029 19.0119 31.775 18.4369 31.24C18.0699 30.92 17.6109 30.37 17.0599 29.592C16.4699 28.763 15.9849 27.798 15.6049 26.701C15.1979 25.514 14.9939 24.366 14.9939 23.254C14.9939 21.981 15.2689 20.882 15.8199 19.962C16.2366 19.2395 16.8324 18.6365 17.5499 18.211C18.2574 17.7867 19.065 17.5582 19.8899 17.549C20.3499 17.549 20.9529 17.691 21.6999 17.971C22.4469 18.251 22.9269 18.393 23.1359 18.393C23.2939 18.393 23.8249 18.226 24.7289 17.895C25.5819 17.588 26.3019 17.461 26.8919 17.511C28.4919 17.64 29.6929 18.27 30.4919 19.406C29.0619 20.273 28.3549 21.486 28.3689 23.043C28.3809 24.256 28.8219 25.265 29.6859 26.066C30.0679 26.4316 30.5136 26.7241 31.0009 26.929C30.8949 27.236 30.7829 27.529 30.6649 27.811ZM26.9979 13.38C26.9979 14.33 26.6499 15.218 25.9589 16.039C25.1229 17.015 24.1129 17.58 23.0179 17.491C23.0036 17.3716 22.9966 17.2513 22.9969 17.131C22.9969 16.218 23.3929 15.242 24.0999 14.443C24.4519 14.039 24.8999 13.702 25.4429 13.434C25.9849 13.17 26.4969 13.024 26.9789 12.999C26.9919 13.127 26.9979 13.254 26.9979 13.38Z" fill="white"/>
</svg>
