<svg width="24" height="24" viewBox="0 0 24 24" fill="none" xmlns="http://www.w3.org/2000/svg">
<path d="M13.88 20.59C13.09 20.59 12.22 20.31 11.35 19.76L8.43 17.93C8.23 17.81 8 17.74 7.77 17.74H6.33C3.91 17.74 2.58 16.41 2.58 13.99V9.99001C2.58 7.57001 3.91 6.24001 6.33 6.24001H7.76C7.99 6.24001 8.22 6.17001 8.42 6.05001L11.34 4.22001C12.8 3.31001 14.22 3.14001 15.34 3.76001C16.46 4.38001 17.07 5.67001 17.07 7.40001V16.57C17.07 18.29 16.45 19.59 15.34 20.21C14.9 20.47 14.41 20.59 13.88 20.59ZM6.33 7.75001C4.75 7.75001 4.08 8.42001 4.08 10V14C4.08 15.58 4.75 16.25 6.33 16.25H7.76C8.28 16.25 8.78 16.39 9.22 16.67L12.14 18.5C13.11 19.1 14.01 19.26 14.62 18.92C15.23 18.58 15.58 17.73 15.58 16.6V7.41001C15.58 6.27001 15.23 5.42001 14.62 5.09001C14.01 4.75001 13.11 4.90001 12.14 5.51001L9.22 7.33001C8.78 7.61001 8.28 7.75001 7.76 7.75001H6.33Z" fill="#1D1D1D"/>
<path d="M19.33 16.75C19.17 16.75 19.02 16.7 18.88 16.6C18.55 16.35 18.48 15.88 18.73 15.55C20.3 13.46 20.3 10.54 18.73 8.45C18.48 8.12 18.55 7.65 18.88 7.4C19.21 7.15 19.68 7.22 19.93 7.55C21.9 10.17 21.9 13.83 19.93 16.45C19.79 16.65 19.56 16.75 19.33 16.75Z" fill="#1D1D1D"/>
</svg>
