<svg width="16" height="16" viewBox="0 0 16 16" fill="none" xmlns="http://www.w3.org/2000/svg">
<path d="M2.4 6H13.6M2.4 10H13.6M7.66665 2C6.54354 3.79974 5.94812 5.87858 5.94812 8C5.94812 10.1214 6.54354 12.2003 7.66665 14M8.33333 2C9.45644 3.79974 10.0519 5.87858 10.0519 8C10.0519 10.1214 9.45644 12.2003 8.33333 14M14 8C14 11.3137 11.3137 14 8 14C4.68629 14 2 11.3137 2 8C2 4.68629 4.68629 2 8 2C11.3137 2 14 4.68629 14 8Z" stroke="#64748B" stroke-width="1.5" stroke-linecap="round" stroke-linejoin="round"/>
</svg>
