<svg width="375" height="398" viewBox="0 0 375 398" fill="none" xmlns="http://www.w3.org/2000/svg">
<g clip-path="url(#clip0_708_6830)">
<g filter="url(#filter0_f_708_6830)">
<ellipse cx="187" cy="350.5" rx="110" ry="13.5" fill="#1A2B41" fill-opacity="0.15"/>
</g>
<path d="M15.4327 223.048C20.0921 268.507 101.13 297.032 196.435 286.761C291.74 276.489 365.223 231.31 360.563 185.851" stroke="#538FFF" stroke-width="0.841107"/>
<path d="M53.524 319.831C23.9638 285.57 58.1838 205.011 129.956 139.898C201.729 74.7848 283.875 49.7741 313.436 84.0352" stroke="#538FFF" stroke-width="0.841107"/>
<mask id="mask0_708_6830" style="mask-type:alpha" maskUnits="userSpaceOnUse" x="46" y="123" width="274" height="187">
<rect x="64" y="122" width="259" height="158" rx="10.8377" transform="rotate(7 64 122)" fill="#011154"/>
</mask>
<g mask="url(#mask0_708_6830)">
<rect x="64" y="122" width="259" height="158" rx="10.8377" transform="rotate(7 64 122)" fill="url(#paint0_linear_708_6830)"/>
<path d="M213.188 164.438C213.331 163.276 214.436 162.456 215.658 162.605L228.925 164.235C230.146 164.384 231.02 165.448 230.878 166.61L230.857 166.778L213.167 164.606L213.188 164.438Z" fill="white"/>
<path fill-rule="evenodd" clip-rule="evenodd" d="M213.033 165.7L230.723 167.872L229.948 174.183C229.805 175.345 228.7 176.165 227.478 176.015L214.211 174.386C212.99 174.236 212.115 173.173 212.258 172.011L213.033 165.7ZM226.904 173.382C227.637 173.472 228.3 172.98 228.386 172.283C228.471 171.586 227.947 170.948 227.214 170.858C226.481 170.768 225.818 171.26 225.732 171.957C225.647 172.654 226.171 173.292 226.904 173.382Z" fill="white"/>
<path d="M244.739 168.796C244.95 169.365 245.014 169.978 244.934 170.634C244.853 171.29 244.642 171.869 244.3 172.37C243.96 172.862 243.553 173.237 243.079 173.497C242.119 174.035 241.167 174.246 240.222 174.13L238.232 173.885L238.022 175.597C237.993 175.829 237.961 176.005 237.925 176.123C237.901 176.233 237.837 176.358 237.733 176.499C237.551 176.754 237.12 176.839 236.441 176.756C235.698 176.665 235.286 176.424 235.204 176.035C235.162 175.856 235.162 175.589 235.206 175.236L236.238 166.83C236.266 166.597 236.293 166.426 236.317 166.317C236.353 166.198 236.423 166.068 236.526 165.927C236.708 165.673 237.139 165.587 237.818 165.671L241.225 166.089C242.159 166.204 243.027 166.638 243.829 167.393C244.226 167.759 244.529 168.227 244.739 168.796ZM240.567 171.451C240.886 171.49 241.212 171.417 241.547 171.233C241.882 171.049 242.077 170.734 242.132 170.29C242.186 169.846 242.073 169.494 241.793 169.234C241.514 168.964 241.209 168.808 240.88 168.768L238.89 168.524L238.561 171.205L240.567 171.451Z" fill="white"/>
<path d="M251.777 168.184L255.038 177.164C255.176 177.529 255.235 177.798 255.214 177.969C255.169 178.333 254.821 178.623 254.169 178.84C253.787 178.968 253.49 179.018 253.278 178.992C253.076 178.968 252.912 178.901 252.785 178.793C252.669 178.687 252.585 178.579 252.534 178.47C252.493 178.363 252.432 178.202 252.351 177.987L251.724 176.249L247.314 175.708L246.285 177.242C246.154 177.431 246.051 177.567 245.977 177.65C245.912 177.734 245.805 177.818 245.655 177.903C245.516 177.978 245.341 178.002 245.128 177.976C244.927 177.952 244.656 177.831 244.316 177.615C243.735 177.257 243.467 176.896 243.512 176.532C243.533 176.361 243.655 176.114 243.877 175.793L249.216 167.854C249.361 167.636 249.559 167.471 249.81 167.358C250.071 167.247 250.335 167.208 250.6 167.24C251.173 167.31 251.566 167.625 251.777 168.184ZM250.041 171.661L248.736 173.607L250.853 173.867L250.041 171.661Z" fill="white"/>
<path d="M264.159 169.12C264.637 169.527 264.856 169.892 264.816 170.216C264.792 170.407 264.638 170.66 264.351 170.973L260.312 175.443L259.956 178.336C259.928 178.569 259.896 178.744 259.86 178.863C259.835 178.972 259.771 179.098 259.668 179.239C259.564 179.38 259.408 179.468 259.199 179.504C258.99 179.54 258.715 179.537 258.376 179.495C258.036 179.454 257.769 179.39 257.575 179.305C257.381 179.219 257.251 179.096 257.184 178.934C257.119 178.762 257.083 178.619 257.075 178.505C257.079 178.383 257.097 178.2 257.126 177.958L257.478 175.095L254.64 169.781C254.438 169.408 254.348 169.125 254.372 168.933C254.412 168.61 254.683 168.331 255.186 168.095C255.69 167.85 256.043 167.739 256.245 167.764C256.446 167.789 256.601 167.849 256.707 167.944C256.874 168.077 257.04 168.308 257.204 168.635L259.211 172.695L262.14 169.241C262.379 168.963 262.578 168.788 262.738 168.715C262.899 168.632 263.075 168.603 263.266 168.626C263.467 168.651 263.765 168.816 264.159 169.12Z" fill="white"/>
<path d="M273.632 179.431C273.747 179.814 273.794 180.087 273.774 180.248C273.727 180.632 273.359 180.915 272.668 181.096C272.311 181.196 272.027 181.233 271.814 181.207C271.613 181.182 271.448 181.116 271.322 181.008C271.207 180.891 271.123 180.779 271.072 180.67C270.99 180.465 270.688 179.5 270.167 177.776L269.67 177.745L267.664 177.499L267.454 179.211C267.425 179.443 267.393 179.618 267.357 179.737C267.332 179.847 267.268 179.972 267.165 180.113C266.983 180.368 266.552 180.453 265.873 180.37C265.13 180.278 264.718 180.038 264.636 179.649C264.594 179.469 264.594 179.203 264.637 178.85L265.67 170.443C265.698 170.211 265.724 170.04 265.749 169.93C265.785 169.812 265.855 169.682 265.958 169.541C266.14 169.287 266.571 169.201 267.25 169.284L270.689 169.707C271.623 169.821 272.491 170.256 273.292 171.01C273.679 171.376 273.977 171.843 274.187 172.412C274.397 172.981 274.462 173.593 274.382 174.25C274.241 175.391 273.728 176.281 272.842 176.92C273.009 177.484 273.273 178.321 273.632 179.431ZM267.993 174.818L270.031 175.069C270.339 175.106 270.66 175.033 270.995 174.849C271.33 174.664 271.525 174.35 271.579 173.906C271.634 173.461 271.521 173.109 271.241 172.849C270.961 172.579 270.657 172.424 270.328 172.384L268.322 172.137L267.993 174.818Z" fill="white"/>
<path d="M281.215 170.861C282.786 171.054 284.083 171.761 285.108 172.984C286.132 174.206 286.546 175.62 286.348 177.226C286.152 178.821 285.433 180.117 284.191 181.112C282.949 182.097 281.522 182.491 279.908 182.293C278.295 182.095 276.989 181.371 275.989 180.12C275.001 178.872 274.601 177.48 274.789 175.945C274.892 175.107 275.147 174.344 275.555 173.656C275.964 172.958 276.464 172.394 277.055 171.964C277.647 171.535 278.305 171.221 279.03 171.023C279.754 170.825 280.483 170.771 281.215 170.861ZM277.616 176.215C277.506 177.114 277.719 177.883 278.254 178.523C278.802 179.154 279.452 179.515 280.206 179.608C280.959 179.701 281.672 179.511 282.344 179.04C283.016 178.569 283.408 177.874 283.521 176.956C283.634 176.037 283.417 175.262 282.869 174.631C282.332 174.001 281.687 173.64 280.934 173.548C280.18 173.455 279.466 173.654 278.792 174.146C278.118 174.627 277.727 175.316 277.616 176.215Z" fill="white"/>
<path d="M292.387 177.983C293.828 179.666 294.843 180.924 295.431 181.754C295.735 182.171 295.871 182.51 295.839 182.773C295.808 183.025 295.558 183.302 295.09 183.603C294.624 183.895 294.252 184.023 293.976 183.989C293.711 183.957 293.413 183.705 293.083 183.234L290.048 179.002L289.685 181.956C289.655 182.198 289.623 182.374 289.588 182.482C289.564 182.592 289.5 182.717 289.396 182.858C289.214 183.113 288.784 183.198 288.104 183.115C287.361 183.023 286.95 182.778 286.869 182.379C286.826 182.209 286.825 181.948 286.869 181.595L287.903 173.173C287.931 172.941 287.958 172.77 287.982 172.66C288.018 172.542 288.088 172.412 288.191 172.271C288.373 172.016 288.804 171.931 289.483 172.014C290.226 172.106 290.644 172.346 290.736 172.737C290.768 172.915 290.762 173.181 290.719 173.534L290.364 176.427C291.997 175.06 293.32 173.936 294.333 173.056C294.755 172.687 295.105 172.52 295.38 172.554C295.656 172.588 295.985 172.808 296.366 173.213C296.749 173.609 296.924 173.938 296.891 174.2C296.86 174.453 296.664 174.736 296.302 175.05C295.604 175.651 294.534 176.463 293.094 177.485L292.387 177.983Z" fill="white"/>
<path d="M245.659 317.825C235.979 400.77 81.3964 382.538 31.9354 315.276C-2.63481 268.264 -25.6516 193.802 25.6224 165.953C65.5695 144.255 124.166 164.928 171.27 199.39C215.344 231.634 252.971 255.172 245.659 317.825Z" fill="#6374BD" fill-opacity="0.15"/>
</g>
<path d="M79.5564 149.781L80.2197 149.862L80.8394 144.815L80.8663 144.818L83.2317 150.232L83.9667 150.322L84.7052 144.307L84.0598 144.228L83.4688 149.042L83.4419 149.038L81.1375 143.869L80.2949 143.766L79.5564 149.781Z" fill="white" fill-opacity="0.7"/>
<path d="M86.4848 150.713C87.0854 150.787 87.4883 150.618 87.7253 150.392L87.7701 150.398L87.7945 150.792L88.3503 150.86L88.7454 147.642C88.8566 146.737 88.3593 146.266 87.3822 146.146C86.8713 146.084 86.4311 146.111 86.0258 146.225L85.9653 146.718C86.2531 146.672 86.6104 146.652 87.0407 146.705C87.8385 146.803 88.1212 147.02 88.0365 147.71L87.9792 148.176L86.7604 148.172C85.8967 148.166 85.3441 148.517 85.2484 149.297C85.146 150.13 85.678 150.614 86.4848 150.713ZM86.7212 150.196C86.2102 150.133 85.9083 149.851 85.9677 149.367C86.0304 148.856 86.3269 148.665 86.8803 148.678L87.9165 148.687L87.7558 149.996C87.5445 150.161 87.1335 150.247 86.7212 150.196Z" fill="white" fill-opacity="0.7"/>
<path d="M89.6382 151.018L90.3195 151.102L90.7631 147.49C91.1426 147.363 91.5557 147.259 91.9322 147.306C92.5238 147.378 92.7114 147.629 92.6454 148.167L92.2558 151.34L92.937 151.423L93.3443 148.107C93.3575 147.999 93.3584 147.917 93.3537 147.808C93.7981 147.671 94.1911 147.583 94.5407 147.626C95.1413 147.7 95.3289 147.95 95.2629 148.488L94.8733 151.661L95.5456 151.744L95.9528 148.427C96.0585 147.566 95.6532 147.162 94.8823 147.067C94.3803 147.006 93.8384 147.121 93.3158 147.375L93.2799 147.371C93.1145 147.014 92.7757 146.809 92.2737 146.747C91.7717 146.685 91.2713 146.833 90.8271 147.042L90.7912 147.038L90.8385 146.653L90.1842 146.572L89.6382 151.018Z" fill="white" fill-opacity="0.7"/>
<path d="M98.6528 152.207C99.3699 152.295 99.9084 152.134 100.2 151.979L100.263 151.468C99.8367 151.606 99.4246 151.701 98.833 151.629C97.8828 151.512 97.4068 151.017 97.5074 149.901L100.537 150.273L100.585 149.887C100.754 148.507 100.267 147.728 99.0482 147.579C98.0263 147.453 97.0272 148.031 96.8368 149.582L96.8214 149.707C96.6508 151.097 97.2544 152.035 98.6528 152.207ZM98.962 148.132C99.6881 148.221 100.006 148.67 99.8872 149.638L97.5745 149.354C97.775 148.314 98.4063 148.064 98.962 148.132Z" fill="white" fill-opacity="0.7"/>
<path d="M77.427 169.672L78.431 169.795L78.9133 165.867L83.13 166.385L82.6477 170.313L83.6391 170.434L84.673 162.014L83.6816 161.892L83.2332 165.544L79.0165 165.026L79.4649 161.374L78.4609 161.251L77.427 169.672Z" fill="white"/>
<path d="M88.0549 171.091C89.7365 171.298 91.036 170.26 91.2794 168.277L91.301 168.101C91.5429 166.131 90.6164 164.858 88.8595 164.642C87.1778 164.436 85.8909 165.475 85.649 167.445L85.6259 167.634C85.3824 169.617 86.2979 170.875 88.0549 171.091ZM88.1771 170.304C87.1354 170.176 86.389 169.511 86.6017 167.779L86.6402 167.465C86.819 166.01 87.6204 165.293 88.7498 165.431C89.7664 165.556 90.5378 166.224 90.3252 167.956L90.2867 168.27C90.1064 169.738 89.3065 170.442 88.1771 170.304Z" fill="white"/>
<path d="M92.3505 171.504L93.3042 171.621L93.9252 166.564C94.469 166.388 95.1478 166.255 95.7376 166.328C96.7291 166.449 96.9541 166.795 96.8616 167.548L96.3162 171.991L97.2699 172.108L97.8401 167.465C97.988 166.26 97.4583 165.698 96.2409 165.549C95.4754 165.455 94.6383 165.632 94.0148 165.938L93.9646 165.931L94.0309 165.392L93.1147 165.279L92.3505 171.504Z" fill="white"/>
<path d="M101.023 174.442C103.144 174.702 104.101 173.966 104.232 172.899C104.374 171.745 103.574 171.303 102.445 171.164L100.726 170.953C100.311 170.902 100.126 170.752 100.168 170.413C100.192 170.212 100.336 170.077 100.518 169.946C100.83 170.099 101.174 170.205 101.563 170.253C102.868 170.413 103.979 169.874 104.142 168.544L104.144 168.532C104.204 168.042 104.087 167.646 103.832 167.334L104.949 167.471L105.04 166.731L102.932 166.472C102.663 166.375 102.379 166.302 102.066 166.264C100.698 166.096 99.631 166.691 99.4723 167.984L99.4692 168.009C99.3783 168.749 99.6179 169.288 100.056 169.66C99.5362 169.953 99.2749 170.214 99.2271 170.603C99.1763 171.017 99.42 171.315 99.7591 171.458L99.7514 171.521C99.0851 171.656 98.4977 171.979 98.4161 172.644C98.3051 173.547 99.1283 174.209 101.023 174.442ZM101.091 173.685C99.8608 173.534 99.3676 173.194 99.4354 172.641C99.5002 172.114 99.898 171.883 100.395 171.778L102.19 171.999C103.005 172.099 103.283 172.324 103.212 172.901C103.132 173.554 102.559 173.866 101.091 173.685ZM101.656 169.5C100.827 169.398 100.324 168.929 100.425 168.113L100.432 168.05C100.528 167.272 101.11 166.885 101.964 166.99C102.805 167.093 103.284 167.547 103.179 168.4L103.171 168.463C103.073 169.266 102.521 169.606 101.656 169.5Z" fill="white"/>
<path d="M112.296 174.093C113.363 174.224 114.257 174.105 114.938 173.946L115.399 170.194L112.613 169.852L112.511 170.68L114.319 170.902L114.037 173.199C113.617 173.3 113.014 173.328 112.425 173.255C110.166 172.978 109.736 171.499 109.976 169.541L110.018 169.202C110.237 167.42 111.165 165.98 113.261 166.237C114.378 166.374 114.984 166.729 115.469 167.03L115.575 166.165C115.104 165.852 114.481 165.533 113.439 165.405C111.318 165.145 109.322 166.046 108.934 169.209L108.906 169.435C108.552 172.321 109.912 173.8 112.296 174.093Z" fill="white"/>
<path d="M116.703 174.494L117.657 174.611L118.42 168.399L117.466 168.282L116.703 174.494ZM117.607 167.026L118.586 167.146L118.71 166.142L117.731 166.022L117.607 167.026Z" fill="white"/>
<path d="M119.534 174.842L120.5 174.96L121.604 165.975L120.637 165.856L119.534 174.842Z" fill="white"/>
<path d="M125.812 175.613L128.322 175.921C131.058 176.257 132.477 174.864 132.802 172.216L132.832 171.978C133.161 169.292 131.903 167.813 129.343 167.498L126.846 167.192L125.812 175.613ZM126.908 174.881L127.733 168.167L129.138 168.339C131.071 168.577 132.039 169.511 131.752 171.845L131.706 172.222C131.43 174.468 130.435 175.314 128.452 175.07L126.908 174.881Z" fill="white"/>
<path d="M136.219 177.005C137.901 177.212 139.2 176.174 139.444 174.191L139.465 174.015C139.707 172.045 138.781 170.772 137.024 170.556C135.342 170.35 134.055 171.389 133.813 173.359L133.79 173.548C133.547 175.53 134.462 176.789 136.219 177.005ZM136.341 176.218C135.3 176.09 134.553 175.425 134.766 173.693L134.805 173.379C134.983 171.923 135.785 171.206 136.914 171.345C137.931 171.47 138.702 172.138 138.49 173.87L138.451 174.184C138.271 175.652 137.471 176.356 136.341 176.218Z" fill="white"/>
<path d="M140.515 177.418L141.469 177.535L142.09 172.477C142.633 172.302 143.312 172.169 143.902 172.241C144.893 172.363 145.119 172.709 145.026 173.462L144.481 177.905L145.434 178.022L146.004 173.378C146.152 172.174 145.623 171.612 144.405 171.462C143.64 171.368 142.803 171.546 142.179 171.851L142.129 171.845L142.195 171.306L141.279 171.193L140.515 177.418Z" fill="white"/>
<path d="M149.188 180.355C151.309 180.616 152.265 179.88 152.396 178.813C152.538 177.658 151.739 177.216 150.609 177.078L148.89 176.867C148.476 176.816 148.29 176.666 148.332 176.327C148.357 176.126 148.501 175.991 148.682 175.86C148.995 176.013 149.338 176.119 149.728 176.167C151.033 176.327 152.143 175.788 152.307 174.458L152.308 174.445C152.368 173.956 152.251 173.56 151.997 173.248L153.114 173.385L153.205 172.645L151.096 172.386C150.828 172.289 150.544 172.216 150.23 172.178C148.862 172.01 147.795 172.605 147.637 173.897L147.634 173.922C147.543 174.663 147.782 175.202 148.221 175.574C147.701 175.867 147.439 176.128 147.392 176.517C147.341 176.931 147.584 177.229 147.923 177.372L147.916 177.435C147.25 177.57 146.662 177.892 146.58 178.558C146.47 179.461 147.293 180.123 149.188 180.355ZM149.255 179.599C148.025 179.448 147.532 179.107 147.6 178.555C147.665 178.028 148.062 177.797 148.559 177.692L150.354 177.913C151.17 178.013 151.448 178.238 151.377 178.815C151.297 179.468 150.723 179.78 149.255 179.599ZM149.82 175.414C148.992 175.312 148.489 174.843 148.589 174.027L148.597 173.964C148.692 173.186 149.275 172.799 150.128 172.904C150.969 173.007 151.448 173.461 151.344 174.314L151.336 174.377C151.237 175.18 150.686 175.52 149.82 175.414Z" fill="white"/>
<path d="M68.1228 242.979L71.7174 243.42L71.7911 242.82L68.9047 242.465L69.1744 240.269L71.3795 240.54L71.4533 239.939L69.2481 239.668L69.4957 237.651L72.3553 238.003L72.429 237.402L68.8613 236.964L68.1228 242.979Z" fill="white" fill-opacity="0.7"/>
<path d="M72.5762 243.526L73.3023 243.615L75.2194 241.266L75.2463 241.269L76.5293 244.011L77.3182 244.108L75.7853 240.808L77.9492 238.08L77.2141 237.989L75.4748 240.224L75.4479 240.22L74.2111 237.621L73.4223 237.524L74.9348 240.694L72.5762 243.526Z" fill="white" fill-opacity="0.7"/>
<path d="M78.391 244.24L79.1081 244.328L79.4042 241.916L80.6323 242.067C81.7797 242.208 82.6298 241.657 82.7751 240.474C82.9138 239.344 82.3387 238.619 80.9851 238.452L79.1295 238.225L78.391 244.24ZM79.4768 241.325L79.7729 238.913L80.8396 239.044C81.8167 239.164 82.1122 239.574 82.0077 240.425C81.9086 241.232 81.4938 241.572 80.5615 241.458L79.4768 241.325Z" fill="white" fill-opacity="0.7"/>
<path d="M85.7006 245.137L87.4934 245.357C89.4476 245.597 90.4614 244.602 90.6937 242.711L90.7146 242.541C90.9501 240.622 90.0516 239.566 88.223 239.341L86.4391 239.122L85.7006 245.137ZM86.4836 244.614L87.0724 239.819L88.0764 239.942C89.4569 240.111 90.1484 240.779 89.9437 242.446L89.9106 242.715C89.7136 244.319 89.0025 244.924 87.5862 244.75L86.4836 244.614Z" fill="white" fill-opacity="0.7"/>
<path d="M90.9301 245.779L91.6114 245.863L92.4457 244.182L94.857 244.478L95.2777 246.313L96.0217 246.404L94.5641 240.12L93.8738 240.035L90.9301 245.779ZM94.044 241.02L94.0619 241.023L94.7066 243.85L92.7256 243.607L94.044 241.02Z" fill="white" fill-opacity="0.7"/>
<path d="M97.7857 246.621L98.4849 246.707L99.1497 241.292L100.987 241.518L101.061 240.917L96.6866 240.38L96.6129 240.981L98.4505 241.207L97.7857 246.621Z" fill="white" fill-opacity="0.7"/>
<path d="M101.353 247.059L104.948 247.5L105.021 246.9L102.135 246.545L102.404 244.349L104.61 244.62L104.683 244.019L102.478 243.748L102.726 241.732L105.585 242.083L105.659 241.482L102.091 241.044L101.353 247.059Z" fill="white" fill-opacity="0.7"/>
<path d="M66.8525 260.143L67.5338 260.227L68.2888 254.077L67.9123 254.031L66.4145 254.52L66.3639 254.933L67.5074 254.809L66.8525 260.143Z" fill="white"/>
<path d="M69.0121 260.372L72.7501 260.831L72.8249 260.221L70.0819 259.884L71.1398 259.05C72.3095 258.12 73.0251 257.479 73.1527 256.44C73.2848 255.364 72.713 254.611 71.5028 254.463C70.8216 254.379 70.1746 254.609 69.7684 254.805L69.9052 255.395C70.2845 255.196 70.7994 255.004 71.3104 255.067C72.1619 255.171 72.499 255.613 72.401 256.411C72.2954 257.272 71.6413 257.856 70.6808 258.638L69.0638 259.95L69.0121 260.372Z" fill="white"/>
<path d="M73.2044 261.815L73.8229 261.89L76.8452 254.691L76.2267 254.615L73.2044 261.815Z" fill="white"/>
<path d="M76.7331 261.32L80.4711 261.779L80.5459 261.169L77.8029 260.832L78.8608 259.998C80.0305 259.068 80.7461 258.427 80.8738 257.388C81.0058 256.312 80.434 255.559 79.2238 255.411C78.5426 255.327 77.8956 255.557 77.4894 255.753L77.6262 256.343C78.0055 256.144 78.5204 255.952 79.0314 256.015C79.883 256.119 80.22 256.561 80.122 257.359C80.0164 258.22 79.3623 258.804 78.4018 259.586L76.7848 260.898L76.7331 261.32Z" fill="white"/>
<path d="M82.8979 262.186C84.2246 262.349 85.1246 261.54 85.2567 260.464C85.4119 259.201 84.7383 258.536 83.5282 258.387C83.2772 258.356 82.9019 258.374 82.6522 258.407L83.0022 256.593L85.4763 256.897L85.5512 256.288L82.5034 255.913L81.9008 259.042C82.1941 258.951 82.7798 258.85 83.1921 258.901C84.1333 259.016 84.6261 259.45 84.5138 260.364C84.4092 261.216 83.7874 261.685 82.8372 261.569C82.3442 261.508 81.7779 261.229 81.4737 260.965L81.2688 261.522C81.5955 261.826 82.1987 262.1 82.8979 262.186Z" fill="white"/>
<path d="M149.209 253.035C149.917 253.122 150.484 253.028 150.916 252.844L150.99 252.244C150.59 252.386 150.117 252.537 149.373 252.445C147.992 252.276 147.529 251.309 147.718 249.767L147.754 249.471C147.95 247.876 148.84 247.294 149.979 247.433C150.571 247.506 151.002 247.695 151.454 247.942L151.527 247.35C151.184 247.108 150.734 246.916 150.089 246.837C148.556 246.649 147.251 247.344 146.987 249.495L146.965 249.675C146.715 251.71 147.587 252.836 149.209 253.035Z" fill="white" fill-opacity="0.7"/>
<path d="M153.634 253.478L154.298 253.56L157.215 247.812L156.542 247.73L154.129 252.565L154.111 252.563L152.93 247.286L152.195 247.196L153.634 253.478Z" fill="white" fill-opacity="0.7"/>
<path d="M159.141 254.154L159.804 254.236L162.721 248.488L162.049 248.406L159.635 253.241L159.617 253.239L158.436 247.962L157.701 247.872L159.141 254.154Z" fill="white" fill-opacity="0.7"/>
<path d="M165.284 254.909L165.947 254.99L166.567 249.943L166.594 249.947L168.959 255.36L169.694 255.45L170.433 249.435L169.787 249.356L169.196 254.17L169.169 254.166L166.865 248.997L166.022 248.894L165.284 254.909Z" fill="white" fill-opacity="0.7"/>
<path d="M173.428 256.018C174.862 256.194 175.68 255.612 175.868 254.079L176.35 250.153L175.687 250.071L175.209 253.962C175.051 255.252 174.519 255.579 173.524 255.456C172.529 255.334 172.04 254.874 172.196 253.601L172.675 249.701L171.958 249.613L171.475 253.549C171.291 255.046 172.012 255.844 173.428 256.018Z" fill="white" fill-opacity="0.7"/>
<path d="M177.111 256.361L177.774 256.442L178.398 251.36L178.425 251.363L179.54 256.659L180.203 256.74L182.584 251.874L182.611 251.877L181.987 256.959L182.704 257.048L183.443 251.033L182.394 250.904L180.04 255.774L180.022 255.772L178.907 250.476L177.849 250.346L177.111 256.361Z" fill="white" fill-opacity="0.7"/>
<path d="M184.245 257.237L186.262 257.484C187.615 257.651 188.383 257.035 188.505 256.04C188.617 255.126 188.131 254.638 187.41 254.432L187.416 254.387C188.149 254.267 188.503 253.829 188.58 253.201C188.698 252.242 188.211 251.618 186.821 251.447L184.984 251.222L184.245 257.237ZM185.026 256.732L185.3 254.5L186.492 254.646C187.388 254.756 187.853 255.123 187.757 255.903C187.663 256.674 187.159 256.994 186.29 256.887L185.026 256.732ZM185.369 253.935L185.618 251.909L186.694 252.041C187.536 252.145 187.937 252.44 187.844 253.193C187.749 253.973 187.153 254.154 186.4 254.062L185.369 253.935Z" fill="white" fill-opacity="0.7"/>
<path d="M189.506 257.883L193.101 258.324L193.175 257.723L190.288 257.369L190.558 255.173L192.763 255.444L192.837 254.843L190.632 254.572L190.879 252.555L193.739 252.906L193.813 252.306L190.245 251.868L189.506 257.883Z" fill="white" fill-opacity="0.7"/>
<path d="M194.426 258.487L195.134 258.574L195.451 255.992L196.598 256.133L197.778 258.898L198.585 258.997L197.322 256.094L197.328 256.05C198.1 255.908 198.59 255.477 198.696 254.616C198.829 253.531 198.239 252.849 196.912 252.687L195.164 252.472L194.426 258.487ZM195.519 255.436L195.799 253.159L196.785 253.28C197.708 253.394 198.033 253.789 197.941 254.533C197.846 255.312 197.456 255.674 196.514 255.558L195.519 255.436Z" fill="white" fill-opacity="0.7"/>
<path d="M145.674 269.821L146.355 269.904L147.11 263.755L146.734 263.709L145.236 264.198L145.185 264.611L146.329 264.487L145.674 269.821Z" fill="white"/>
<path d="M147.833 270.049L151.571 270.508L151.646 269.899L148.903 269.562L149.961 268.727C151.131 267.797 151.846 267.157 151.974 266.117C152.106 265.042 151.534 264.289 150.324 264.141C149.643 264.057 148.996 264.287 148.59 264.483L148.726 265.073C149.106 264.874 149.621 264.682 150.132 264.745C150.983 264.849 151.32 265.291 151.222 266.089C151.117 266.949 150.463 267.533 149.502 268.316L147.885 269.628L147.833 270.049Z" fill="white"/>
<path d="M154.135 270.914C155.47 271.078 156.412 270.448 156.541 269.399C156.656 268.467 156.118 267.955 155.357 267.707C156.066 267.566 156.586 267.184 156.677 266.44C156.792 265.499 156.125 264.862 155.049 264.73C154.529 264.666 153.793 264.803 153.405 265.001L153.442 265.588C153.845 265.419 154.338 265.261 154.831 265.322C155.566 265.412 156.009 265.73 155.919 266.465C155.836 267.138 155.259 267.467 154.479 267.371L153.941 267.305L153.866 267.915L154.449 267.986C155.363 268.099 155.91 268.539 155.815 269.31C155.724 270.054 155.114 270.425 154.119 270.303C153.671 270.248 153.091 270.003 152.778 269.738L152.556 270.284C152.859 270.557 153.436 270.828 154.135 270.914Z" fill="white"/>
<path d="M79.7041 203.857L80.9662 204.012L81.0776 202.511L82.1946 203.493L82.9613 202.466L81.6745 201.682L83.111 201.247L82.6173 200.051L81.296 200.733L81.5526 199.236L80.2905 199.081L80.1773 200.596L79.0603 199.614L78.3062 200.657L79.6092 201.429L78.1565 201.876L78.6377 203.056L79.9589 202.374L79.7041 203.857Z" fill="white"/>
<path d="M85.2926 204.543L86.5548 204.698L86.6662 203.198L87.7832 204.179L88.5498 203.152L87.263 202.368L88.6995 201.933L88.2058 200.737L86.8846 201.419L87.1412 199.922L85.879 199.767L85.7658 201.282L84.6489 200.3L83.8948 201.343L85.1977 202.115L83.7451 202.562L84.2262 203.742L85.5475 203.06L85.2926 204.543Z" fill="white"/>
<path d="M90.8812 205.229L92.1433 205.384L92.2547 203.884L93.3717 204.865L94.1384 203.839L92.8516 203.054L94.2881 202.619L93.7944 201.423L92.4731 202.105L92.7297 200.608L91.4676 200.453L91.3544 201.968L90.2374 200.986L89.4833 202.029L90.7862 202.801L89.3336 203.249L89.8148 204.429L91.136 203.746L90.8812 205.229Z" fill="white"/>
<path d="M96.4697 205.915L97.7318 206.07L97.8433 204.57L98.9603 205.552L99.7269 204.525L98.4401 203.741L99.8766 203.306L99.3829 202.109L98.0616 202.792L98.3183 201.294L97.0561 201.139L96.9429 202.654L95.826 201.673L95.0719 202.716L96.3748 203.487L94.9222 203.935L95.4033 205.115L96.7246 204.433L96.4697 205.915Z" fill="white"/>
<path d="M113.361 207.99L114.624 208.144L114.735 206.644L115.852 207.626L116.619 206.599L115.332 205.815L116.768 205.38L116.275 204.183L114.953 204.866L115.21 203.368L113.948 203.213L113.835 204.728L112.718 203.747L111.964 204.79L113.266 205.561L111.814 206.009L112.295 207.189L113.616 206.507L113.361 207.99Z" fill="white"/>
<path d="M118.95 208.676L120.212 208.831L120.324 207.33L121.44 208.312L122.207 207.285L120.92 206.501L122.357 206.066L121.863 204.87L120.542 205.552L120.798 204.055L119.536 203.9L119.423 205.414L118.306 204.433L117.552 205.476L118.855 206.247L117.402 206.695L117.884 207.875L119.205 207.193L118.95 208.676Z" fill="white"/>
<path d="M124.538 209.362L125.801 209.517L125.912 208.016L127.029 208.998L127.796 207.971L126.509 207.187L127.945 206.752L127.452 205.556L126.13 206.238L126.387 204.741L125.125 204.586L125.012 206.101L123.895 205.119L123.141 206.162L124.444 206.933L122.991 207.381L123.472 208.561L124.793 207.879L124.538 209.362Z" fill="white"/>
<path d="M130.127 210.048L131.389 210.203L131.501 208.703L132.618 209.684L133.384 208.657L132.097 207.873L133.534 207.438L133.04 206.242L131.719 206.924L131.976 205.427L130.713 205.272L130.6 206.787L129.483 205.805L128.729 206.848L130.032 207.62L128.579 208.067L129.061 209.247L130.382 208.565L130.127 210.048Z" fill="white"/>
<path d="M147.019 212.122L148.281 212.277L148.392 210.777L149.509 211.758L150.276 210.731L148.989 209.947L150.426 209.512L149.932 208.316L148.611 208.998L148.867 207.501L147.605 207.346L147.492 208.861L146.375 207.879L145.621 208.922L146.924 209.694L145.471 210.141L145.952 211.321L147.274 210.639L147.019 212.122Z" fill="white"/>
<path d="M152.607 212.808L153.869 212.963L153.981 211.463L155.098 212.444L155.864 211.418L154.578 210.633L156.014 210.198L155.52 209.002L154.199 209.684L154.456 208.187L153.194 208.032L153.08 209.547L151.964 208.565L151.209 209.608L152.512 210.38L151.06 210.828L151.541 212.008L152.862 211.325L152.607 212.808Z" fill="white"/>
<path d="M158.196 213.494L159.458 213.649L159.569 212.149L160.686 213.131L161.453 212.104L160.166 211.32L161.603 210.885L161.109 209.688L159.788 210.371L160.044 208.873L158.782 208.718L158.669 210.233L157.552 209.252L156.798 210.295L158.101 211.066L156.648 211.514L157.129 212.694L158.451 212.012L158.196 213.494Z" fill="white"/>
<path d="M163.784 214.181L165.046 214.336L165.158 212.835L166.275 213.817L167.042 212.79L165.755 212.006L167.191 211.571L166.698 210.375L165.376 211.057L165.633 209.56L164.371 209.405L164.258 210.919L163.141 209.938L162.387 210.981L163.689 211.752L162.237 212.2L162.718 213.38L164.039 212.698L163.784 214.181Z" fill="white"/>
<path d="M179.879 221.558L181.93 221.81L183.151 211.871L182.104 211.742L179.352 212.569L179.206 213.759L180.85 213.655L179.879 221.558Z" fill="white"/>
<path d="M183.931 221.997L190.299 222.779L190.491 221.216L186.733 220.755L187.878 219.847C189.011 218.923 190.932 217.383 191.151 215.605C191.373 213.797 190.379 212.642 188.113 212.363C186.965 212.223 185.923 212.415 185.187 212.718L185.267 214.198C185.847 213.978 186.702 213.777 187.319 213.853C188.538 214.003 189.15 214.471 189.007 215.633C188.865 216.794 187.53 217.941 186.006 219.209L184.075 220.821L183.931 221.997Z" fill="white"/>
<path d="M194.299 223.416C196.58 223.696 198.065 222.743 198.292 220.893C198.47 219.444 197.726 218.625 196.521 218.244C197.644 217.989 198.397 217.31 198.542 216.134C198.739 214.527 197.653 213.535 195.788 213.306C194.77 213.181 193.522 213.261 192.851 213.513L192.885 215.017C193.488 214.843 194.332 214.729 195.035 214.815C196.068 214.942 196.601 215.342 196.49 216.246C196.382 217.12 195.666 217.498 194.587 217.395L193.623 217.306L193.448 218.726L194.52 218.886C195.679 219.058 196.294 219.497 196.173 220.487C196.046 221.52 195.339 221.942 194.134 221.794C193.374 221.701 192.3 221.322 191.849 220.961L191.357 222.356C191.887 222.785 193.094 223.268 194.299 223.416Z" fill="white"/>
<path d="M203.301 224.58L205.223 224.816L205.463 222.865L206.954 223.048L207.134 221.585L205.642 221.402L206.461 214.733L205.127 214.569L199.243 220.995L199.109 222.085L203.541 222.629L203.301 224.58ZM201.368 220.877L204.141 217.855L203.735 221.168L201.368 220.877Z" fill="white"/>
<path d="M15.4329 223.048C10.7734 177.589 84.2563 132.41 179.562 122.138C274.867 111.867 355.904 140.392 360.564 185.851" stroke="#538FFF" stroke-width="0.841107"/>
<path d="M53.524 319.831C83.0842 354.092 165.231 329.082 237.003 263.968C308.776 198.855 342.996 118.296 313.436 84.0352" stroke="#538FFF" stroke-width="0.841107"/>
<path d="M91 91.0713C91 91.0713 94.4807 90.0685 95.8711 88.9213C97.6823 87.4268 98.0711 84.0002 98.0711 84.0002C98.0711 84.0002 98.7903 87.3501 100.271 88.9213C101.835 90.5808 105.142 91.0713 105.142 91.0713C105.142 91.0713 101.781 92.006 100.271 93.8213C99.0339 95.3085 98.0711 98.1424 98.0711 98.1424C98.0711 98.1424 97.435 95.2873 95.8711 93.8213C94.4821 92.5193 91 91.0713 91 91.0713Z" fill="#2873FF"/>
<path d="M332 305.071C332 305.071 335.481 304.068 336.871 302.921C338.682 301.427 339.071 298 339.071 298C339.071 298 339.79 301.35 341.271 302.921C342.835 304.581 346.142 305.071 346.142 305.071C346.142 305.071 342.781 306.006 341.271 307.821C340.034 309.309 339.071 312.142 339.071 312.142C339.071 312.142 338.435 309.287 336.871 307.821C335.482 306.519 332 305.071 332 305.071Z" fill="#2873FF"/>
<path d="M311 38.9707C311 38.9707 319.354 36.564 322.691 33.8107C327.037 30.224 327.971 22.0001 327.971 22.0001C327.971 22.0001 329.697 30.04 333.251 33.8107C337.004 37.7936 344.941 38.9707 344.941 38.9707C344.941 38.9707 336.875 41.214 333.251 45.5707C330.281 49.14 327.971 55.9413 327.971 55.9413C327.971 55.9413 326.444 49.089 322.691 45.5707C319.357 42.446 311 38.9707 311 38.9707Z" fill="#E2E8F0"/>
<path d="M34 330.071C34 330.071 37.4807 329.068 38.8711 327.921C40.6823 326.427 41.0711 323 41.0711 323C41.0711 323 41.7903 326.35 43.2711 327.921C44.8352 329.581 48.1421 330.071 48.1421 330.071C48.1421 330.071 44.7811 331.006 43.2711 332.821C42.0339 334.309 41.0711 337.142 41.0711 337.142C41.0711 337.142 40.435 334.287 38.8711 332.821C37.4821 331.519 34 330.071 34 330.071Z" fill="#E2E8F0"/>
</g>
<defs>
<filter id="filter0_f_708_6830" x="47" y="307" width="280" height="87" filterUnits="userSpaceOnUse" color-interpolation-filters="sRGB">
<feFlood flood-opacity="0" result="BackgroundImageFix"/>
<feBlend mode="normal" in="SourceGraphic" in2="BackgroundImageFix" result="shape"/>
<feGaussianBlur stdDeviation="15" result="effect1_foregroundBlur_708_6830"/>
</filter>
<linearGradient id="paint0_linear_708_6830" x1="64" y1="115.68" x2="359.191" y2="328.624" gradientUnits="userSpaceOnUse">
<stop offset="0.188358" stop-color="#011154"/>
<stop offset="1" stop-color="#011154"/>
</linearGradient>
<clipPath id="clip0_708_6830">
<rect width="375" height="398" fill="white"/>
</clipPath>
</defs>
</svg>
